<?xml version="1.0" encoding="us-ascii" standalone="no"?><svg xmlns="http://www.w3.org/2000/svg" xmlns:xlink="http://www.w3.org/1999/xlink" contentStyleType="text/css" height="1688.5417px" preserveAspectRatio="none" style="width:1620px;height:1688px;background:#F8F9FA;" version="1.1" viewBox="0 0 1620 1688" width="1620.8333px" zoomAndPan="magnify"><defs><filter height="300%" id="fijssko81jdlk" width="300%" x="-1" y="-1"><feGaussianBlur result="blurOut" stdDeviation="2.0833333333333335"/><feColorMatrix in="blurOut" result="blurOut2" type="matrix" values="0 0 0 0 0 0 0 0 0 0 0 0 0 0 0 0 0 0 .4 0"/><feOffset dx="4.166666666666667" dy="4.166666666666667" in="blurOut2" result="blurOut3"/><feBlend in="SourceGraphic" in2="blurOut3" mode="normal"/></filter></defs><g><rect fill="#F8F9FA" height="1688.5417" style="stroke:none;stroke-width:1.0416666666666667;" width="1620.8333" x="0" y="0"/><!--class TrafficSignalSystem--><g id="elem_TrafficSignalSystem"><rect codeLine="38" fill="#E3F2FD" filter="url(#fijssko81jdlk)" height="233.726" id="TrafficSignalSystem" rx="5.2083" ry="5.2083" style="stroke:#1976D2;stroke-width:1.0416666666666667;" width="168.75" x="706.7708" y="137.5"/><ellipse cx="731.1979" cy="169.0582" fill="none" rx="10.4167" ry="10.4167" style="stroke:#2683B9;stroke-width:1.0416666666666667;"/><path d="M732.7441,166.1448 Q732.8581,165.9821 732.9883,165.9007 Q733.1348,165.8193 733.2975,165.8193 Q733.5742,165.8193 733.737,166.0146 Q733.916,166.2099 733.916,166.6494 L733.916,167.7236 Q733.916,168.163 733.737,168.3584 Q733.5742,168.5537 733.2975,168.5537 Q733.0371,168.5537 732.8906,168.4072 Q732.7441,168.277 732.6628,167.8864 Q732.6302,167.6259 732.5,167.4957 Q732.2396,167.219 731.7839,167.0563 Q731.3444,166.8935 730.8887,166.8935 Q730.3353,166.8935 729.8633,167.1377 Q729.3913,167.3818 729.0332,167.9352 Q728.6751,168.4723 728.6751,169.2373 L728.6751,170.0511 Q728.6751,170.9462 729.3262,171.5485 Q729.9935,172.1507 731.1491,172.1507 Q731.849,172.1507 732.3372,171.9716 Q732.6139,171.8577 732.9232,171.5322 Q733.1185,171.3369 733.2324,171.288 Q733.3464,171.2229 733.4766,171.2229 Q733.737,171.2229 733.916,171.4183 Q734.1113,171.5973 734.1113,171.8577 Q734.1113,172.1181 733.8509,172.4111 Q733.4766,172.8343 732.8906,173.0784 Q732.1094,173.4039 731.1654,173.4039 Q730.0423,173.4039 729.1634,172.9482 Q728.431,172.5901 727.9264,171.7926 Q727.4219,170.9951 727.4219,170.0673 L727.4219,169.221 Q727.4219,168.2444 727.8776,167.3981 Q728.3333,166.5517 729.1309,166.096 Q729.9447,165.6403 730.8398,165.6403 Q731.3932,165.6403 731.8652,165.7705 Q732.3372,165.8844 732.7441,166.1448 Z " fill="#2FA4E7"/><text fill="#343A40" font-family="Segoe UI" font-size="12.5" font-style="italic" lengthAdjust="spacing" textLength="40.625" x="784.4271" y="161.4054">&#171;block&#187;</text><text fill="#343A40" font-family="Segoe UI" font-size="11.4583" font-weight="bold" lengthAdjust="spacing" textLength="105.2083" x="752.1354" y="187.324">TrafficSignalSystem</text><line style="stroke:#1976D2;stroke-width:1.0416666666666667;" x1="707.8125" x2="874.4792" y1="200.6165" y2="200.6165"/><ellipse cx="718.2292" cy="219.1742" fill="none" rx="3.125" ry="3.125" style="stroke:#2683B9;stroke-width:1.0416666666666667;"/><text fill="#343A40" font-family="Segoe UI" font-size="11.4583" lengthAdjust="spacing" textLength="84.375" x="731.7708" y="222.3562">systemId: String</text><ellipse cx="718.2292" cy="244.8313" fill="none" rx="3.125" ry="3.125" style="stroke:#2683B9;stroke-width:1.0416666666666667;"/><text fill="#343A40" font-family="Segoe UI" font-size="11.4583" lengthAdjust="spacing" textLength="82.2917" x="731.7708" y="248.0133">location: String</text><ellipse cx="718.2292" cy="270.4885" fill="none" rx="3.125" ry="3.125" style="stroke:#2683B9;stroke-width:1.0416666666666667;"/><text fill="#343A40" font-family="Segoe UI" font-size="11.4583" lengthAdjust="spacing" textLength="132.2917" x="731.7708" y="273.6705">mode: OperationalMode</text><line style="stroke:#1976D2;stroke-width:1.0416666666666667;" x1="707.8125" x2="874.4792" y1="285.9212" y2="285.9212"/><ellipse cx="718.2292" cy="304.479" fill="none" rx="3.125" ry="3.125" style="stroke:#2683B9;stroke-width:1.0416666666666667;"/><text fill="#343A40" font-family="Segoe UI" font-size="11.4583" lengthAdjust="spacing" textLength="80.2083" x="731.7708" y="307.6609">initialize(): void</text><ellipse cx="718.2292" cy="330.1361" fill="none" rx="3.125" ry="3.125" style="stroke:#2683B9;stroke-width:1.0416666666666667;"/><text fill="#343A40" font-family="Segoe UI" font-size="11.4583" lengthAdjust="spacing" textLength="90.625" x="731.7708" y="333.3181">shutdown(): void</text><ellipse cx="718.2292" cy="355.7933" fill="none" rx="3.125" ry="3.125" style="stroke:#2683B9;stroke-width:1.0416666666666667;"/><text fill="#343A40" font-family="Segoe UI" font-size="11.4583" lengthAdjust="spacing" textLength="123.9583" x="731.7708" y="358.9752">emergencyMode(): void</text></g><!--class TrafficSignalController--><g id="elem_TrafficSignalController"><rect codeLine="49" fill="#E3F2FD" filter="url(#fijssko81jdlk)" height="233.726" id="TrafficSignalController" rx="5.2083" ry="5.2083" style="stroke:#1976D2;stroke-width:1.0416666666666667;" width="169.7917" x="706.25" y="433.3333"/><ellipse cx="724.1146" cy="464.8916" fill="none" rx="10.4167" ry="10.4167" style="stroke:#2683B9;stroke-width:1.0416666666666667;"/><path d="M725.6608,461.9781 Q725.7747,461.8154 725.9049,461.734 Q726.0514,461.6526 726.2142,461.6526 Q726.4909,461.6526 726.6536,461.8479 Q726.8327,462.0433 726.8327,462.4827 L726.8327,463.5569 Q726.8327,463.9964 726.6536,464.1917 Q726.4909,464.387 726.2142,464.387 Q725.9538,464.387 725.8073,464.2405 Q725.6608,464.1103 725.5794,463.7197 Q725.5469,463.4593 725.4167,463.3291 Q725.1563,463.0524 724.7005,462.8896 Q724.2611,462.7268 723.8053,462.7268 Q723.252,462.7268 722.7799,462.971 Q722.3079,463.2151 721.9499,463.7685 Q721.5918,464.3056 721.5918,465.0706 L721.5918,465.8844 Q721.5918,466.7796 722.2428,467.3818 Q722.9102,467.984 724.0658,467.984 Q724.7656,467.984 725.2539,467.805 Q725.5306,467.691 725.8398,467.3655 Q726.0352,467.1702 726.1491,467.1214 Q726.263,467.0563 726.3932,467.0563 Q726.6536,467.0563 726.8327,467.2516 Q727.028,467.4306 727.028,467.691 Q727.028,467.9515 726.7676,468.2444 Q726.3932,468.6676 725.8073,468.9117 Q725.026,469.2373 724.082,469.2373 Q722.959,469.2373 722.0801,468.7815 Q721.3477,468.4235 720.8431,467.6259 Q720.3385,466.8284 720.3385,465.9007 L720.3385,465.0543 Q720.3385,464.0778 720.7943,463.2314 Q721.25,462.3851 722.0475,461.9293 Q722.8613,461.4736 723.7565,461.4736 Q724.3099,461.4736 724.7819,461.6038 Q725.2539,461.7177 725.6608,461.9781 Z " fill="#2FA4E7"/><text fill="#343A40" font-family="Segoe UI" font-size="12.5" font-style="italic" lengthAdjust="spacing" textLength="40.625" x="783.6979" y="457.2388">&#171;block&#187;</text><text fill="#343A40" font-family="Segoe UI" font-size="11.4583" font-weight="bold" lengthAdjust="spacing" textLength="120.8333" x="743.5938" y="483.1573">TrafficSignalController</text><line style="stroke:#1976D2;stroke-width:1.0416666666666667;" x1="707.2917" x2="875" y1="496.4498" y2="496.4498"/><ellipse cx="717.7083" cy="515.0075" fill="none" rx="3.125" ry="3.125" style="stroke:#2683B9;stroke-width:1.0416666666666667;"/><text fill="#343A40" font-family="Segoe UI" font-size="11.4583" lengthAdjust="spacing" textLength="101.0417" x="731.25" y="518.1895">controllerId: String</text><ellipse cx="717.7083" cy="540.6647" fill="none" rx="3.125" ry="3.125" style="stroke:#2683B9;stroke-width:1.0416666666666667;"/><text fill="#343A40" font-family="Segoe UI" font-size="11.4583" lengthAdjust="spacing" textLength="104.1667" x="731.25" y="543.8466">cycleTime: Duration</text><ellipse cx="717.7083" cy="566.3218" fill="none" rx="3.125" ry="3.125" style="stroke:#2683B9;stroke-width:1.0416666666666667;"/><text fill="#343A40" font-family="Segoe UI" font-size="11.4583" lengthAdjust="spacing" textLength="128.125" x="731.25" y="569.5038">phaseSequence: Phase[]</text><line style="stroke:#1976D2;stroke-width:1.0416666666666667;" x1="707.2917" x2="875" y1="581.7546" y2="581.7546"/><ellipse cx="717.7083" cy="600.3123" fill="none" rx="3.125" ry="3.125" style="stroke:#2683B9;stroke-width:1.0416666666666667;"/><text fill="#343A40" font-family="Segoe UI" font-size="11.4583" lengthAdjust="spacing" textLength="112.5" x="731.25" y="603.4943">updateSignals(): void</text><ellipse cx="717.7083" cy="625.9694" fill="none" rx="3.125" ry="3.125" style="stroke:#2683B9;stroke-width:1.0416666666666667;"/><text fill="#343A40" font-family="Segoe UI" font-size="11.4583" lengthAdjust="spacing" textLength="133.3333" x="731.25" y="629.1514">processDetections(): void</text><ellipse cx="717.7083" cy="651.6266" fill="none" rx="3.125" ry="3.125" style="stroke:#2683B9;stroke-width:1.0416666666666667;"/><text fill="#343A40" font-family="Segoe UI" font-size="11.4583" lengthAdjust="spacing" textLength="100" x="731.25" y="654.8086">handleFault(): void</text></g><!--class Light--><g id="elem_Light"><rect codeLine="60" fill="#E3F2FD" filter="url(#fijssko81jdlk)" height="233.726" id="Light" rx="5.2083" ry="5.2083" style="stroke:#1976D2;stroke-width:1.0416666666666667;" width="206.25" x="441.1458" y="729.1667"/><ellipse cx="516.6667" cy="760.7249" fill="none" rx="10.4167" ry="10.4167" style="stroke:#2683B9;stroke-width:1.0416666666666667;"/><path d="M518.2129,757.8115 Q518.3268,757.6487 518.457,757.5673 Q518.6035,757.486 518.7663,757.486 Q519.043,757.486 519.2057,757.6813 Q519.3848,757.8766 519.3848,758.316 L519.3848,759.3903 Q519.3848,759.8297 519.2057,760.025 Q519.043,760.2203 518.7663,760.2203 Q518.5059,760.2203 518.3594,760.0739 Q518.2129,759.9436 518.1315,759.553 Q518.099,759.2926 517.9688,759.1624 Q517.7083,758.8857 517.2526,758.7229 Q516.8132,758.5602 516.3574,758.5602 Q515.804,758.5602 515.332,758.8043 Q514.86,759.0485 514.502,759.6018 Q514.1439,760.139 514.1439,760.9039 L514.1439,761.7177 Q514.1439,762.6129 514.7949,763.2151 Q515.4622,763.8173 516.6178,763.8173 Q517.3177,763.8173 517.806,763.6383 Q518.0827,763.5244 518.3919,763.1989 Q518.5872,763.0035 518.7012,762.9547 Q518.8151,762.8896 518.9453,762.8896 Q519.2057,762.8896 519.3848,763.0849 Q519.5801,763.264 519.5801,763.5244 Q519.5801,763.7848 519.3197,764.0778 Q518.9453,764.5009 518.3594,764.7451 Q517.5781,765.0706 516.6341,765.0706 Q515.5111,765.0706 514.6322,764.6149 Q513.8997,764.2568 513.3952,763.4593 Q512.8906,762.6617 512.8906,761.734 L512.8906,760.8877 Q512.8906,759.9111 513.3464,759.0647 Q513.8021,758.2184 514.5996,757.7627 Q515.4134,757.3069 516.3086,757.3069 Q516.862,757.3069 517.334,757.4371 Q517.806,757.5511 518.2129,757.8115 Z " fill="#2FA4E7"/><text fill="#343A40" font-family="Segoe UI" font-size="12.5" font-style="italic" lengthAdjust="spacing" textLength="40.625" x="539.5833" y="753.0721">&#171;block&#187;</text><text fill="#343A40" font-family="Segoe UI" font-size="11.4583" font-weight="bold" lengthAdjust="spacing" textLength="28.125" x="545.8333" y="778.9907">Light</text><line style="stroke:#1976D2;stroke-width:1.0416666666666667;" x1="442.1875" x2="646.3542" y1="792.2831" y2="792.2831"/><ellipse cx="452.6042" cy="810.8409" fill="none" rx="3.125" ry="3.125" style="stroke:#2683B9;stroke-width:1.0416666666666667;"/><text fill="#343A40" font-family="Segoe UI" font-size="11.4583" lengthAdjust="spacing" textLength="73.9583" x="466.1458" y="814.0228">lightId: String</text><ellipse cx="452.6042" cy="836.498" fill="none" rx="3.125" ry="3.125" style="stroke:#2683B9;stroke-width:1.0416666666666667;"/><text fill="#343A40" font-family="Segoe UI" font-size="11.4583" lengthAdjust="spacing" textLength="103.125" x="466.1458" y="839.68">direction: Direction</text><ellipse cx="452.6042" cy="862.1552" fill="none" rx="3.125" ry="3.125" style="stroke:#2683B9;stroke-width:1.0416666666666667;"/><text fill="#343A40" font-family="Segoe UI" font-size="11.4583" lengthAdjust="spacing" textLength="130.2083" x="466.1458" y="865.3371">currentColor: LightColor</text><ellipse cx="452.6042" cy="887.8123" fill="none" rx="3.125" ry="3.125" style="stroke:#2683B9;stroke-width:1.0416666666666667;"/><text fill="#343A40" font-family="Segoe UI" font-size="11.4583" lengthAdjust="spacing" textLength="102.0833" x="466.1458" y="890.9943">brightness: Integer</text><line style="stroke:#1976D2;stroke-width:1.0416666666666667;" x1="442.1875" x2="646.3542" y1="903.245" y2="903.245"/><ellipse cx="452.6042" cy="921.8028" fill="none" rx="3.125" ry="3.125" style="stroke:#2683B9;stroke-width:1.0416666666666667;"/><text fill="#343A40" font-family="Segoe UI" font-size="11.4583" lengthAdjust="spacing" textLength="169.7917" x="466.1458" y="924.9847">setColor(color: LightColor): void</text><ellipse cx="452.6042" cy="947.4599" fill="none" rx="3.125" ry="3.125" style="stroke:#2683B9;stroke-width:1.0416666666666667;"/><text fill="#343A40" font-family="Segoe UI" font-size="11.4583" lengthAdjust="spacing" textLength="152.0833" x="466.1458" y="950.6419">performSelfTest(): TestResult</text></g><!--class VehicleDetector--><g id="elem_VehicleDetector"><rect codeLine="70" fill="#E3F2FD" filter="url(#fijssko81jdlk)" height="233.726" id="VehicleDetector" rx="5.2083" ry="5.2083" style="stroke:#1976D2;stroke-width:1.0416666666666667;" width="179.1667" x="948.4375" y="729.1667"/><ellipse cx="986.9271" cy="760.7249" fill="none" rx="10.4167" ry="10.4167" style="stroke:#2683B9;stroke-width:1.0416666666666667;"/><path d="M988.4733,757.8115 Q988.5872,757.6487 988.7174,757.5673 Q988.8639,757.486 989.0267,757.486 Q989.3034,757.486 989.4661,757.6813 Q989.6452,757.8766 989.6452,758.316 L989.6452,759.3903 Q989.6452,759.8297 989.4661,760.025 Q989.3034,760.2203 989.0267,760.2203 Q988.7663,760.2203 988.6198,760.0739 Q988.4733,759.9436 988.3919,759.553 Q988.3594,759.2926 988.2292,759.1624 Q987.9688,758.8857 987.513,758.7229 Q987.0736,758.5602 986.6178,758.5602 Q986.0645,758.5602 985.5924,758.8043 Q985.1204,759.0485 984.7624,759.6018 Q984.4043,760.139 984.4043,760.9039 L984.4043,761.7177 Q984.4043,762.6129 985.0553,763.2151 Q985.7227,763.8173 986.8783,763.8173 Q987.5781,763.8173 988.0664,763.6383 Q988.3431,763.5244 988.6523,763.1989 Q988.8477,763.0035 988.9616,762.9547 Q989.0755,762.8896 989.2057,762.8896 Q989.4661,762.8896 989.6452,763.0849 Q989.8405,763.264 989.8405,763.5244 Q989.8405,763.7848 989.5801,764.0778 Q989.2057,764.5009 988.6198,764.7451 Q987.8385,765.0706 986.8945,765.0706 Q985.7715,765.0706 984.8926,764.6149 Q984.1602,764.2568 983.6556,763.4593 Q983.151,762.6617 983.151,761.734 L983.151,760.8877 Q983.151,759.9111 983.6068,759.0647 Q984.0625,758.2184 984.86,757.7627 Q985.6738,757.3069 986.569,757.3069 Q987.1224,757.3069 987.5944,757.4371 Q988.0664,757.5511 988.4733,757.8115 Z " fill="#2FA4E7"/><text fill="#343A40" font-family="Segoe UI" font-size="12.5" font-style="italic" lengthAdjust="spacing" textLength="40.625" x="1032.8646" y="753.0721">&#171;block&#187;</text><text fill="#343A40" font-family="Segoe UI" font-size="11.4583" font-weight="bold" lengthAdjust="spacing" textLength="84.375" x="1010.9896" y="778.9907">VehicleDetector</text><line style="stroke:#1976D2;stroke-width:1.0416666666666667;" x1="949.4792" x2="1126.5625" y1="792.2831" y2="792.2831"/><ellipse cx="959.8958" cy="810.8409" fill="none" rx="3.125" ry="3.125" style="stroke:#2683B9;stroke-width:1.0416666666666667;"/><text fill="#343A40" font-family="Segoe UI" font-size="11.4583" lengthAdjust="spacing" textLength="93.75" x="973.4375" y="814.0228">detectorId: String</text><ellipse cx="959.8958" cy="836.498" fill="none" rx="3.125" ry="3.125" style="stroke:#2683B9;stroke-width:1.0416666666666667;"/><text fill="#343A40" font-family="Segoe UI" font-size="11.4583" lengthAdjust="spacing" textLength="103.125" x="973.4375" y="839.68">direction: Direction</text><ellipse cx="959.8958" cy="862.1552" fill="none" rx="3.125" ry="3.125" style="stroke:#2683B9;stroke-width:1.0416666666666667;"/><text fill="#343A40" font-family="Segoe UI" font-size="11.4583" lengthAdjust="spacing" textLength="85.4167" x="973.4375" y="865.3371">sensitivity: Float</text><ellipse cx="959.8958" cy="887.8123" fill="none" rx="3.125" ry="3.125" style="stroke:#2683B9;stroke-width:1.0416666666666667;"/><text fill="#343A40" font-family="Segoe UI" font-size="11.4583" lengthAdjust="spacing" textLength="89.5833" x="973.4375" y="890.9943">isActive: Boolean</text><line style="stroke:#1976D2;stroke-width:1.0416666666666667;" x1="949.4792" x2="1126.5625" y1="903.245" y2="903.245"/><ellipse cx="959.8958" cy="921.8028" fill="none" rx="3.125" ry="3.125" style="stroke:#2683B9;stroke-width:1.0416666666666667;"/><text fill="#343A40" font-family="Segoe UI" font-size="11.4583" lengthAdjust="spacing" textLength="142.7083" x="973.4375" y="924.9847">isVehiclePresent(): Boolean</text><ellipse cx="959.8958" cy="947.4599" fill="none" rx="3.125" ry="3.125" style="stroke:#2683B9;stroke-width:1.0416666666666667;"/><text fill="#343A40" font-family="Segoe UI" font-size="11.4583" lengthAdjust="spacing" textLength="81.25" x="973.4375" y="950.6419">calibrate(): void</text></g><!--class SupportingInstrument--><g id="elem_SupportingInstrument"><rect codeLine="80" fill="#E3F2FD" filter="url(#fijssko81jdlk)" height="233.726" id="SupportingInstrument" rx="5.2083" ry="5.2083" style="stroke:#1976D2;stroke-width:1.0416666666666667;" width="204.1667" x="1238.0208" y="729.1667"/><ellipse cx="1271.3542" cy="760.7249" fill="none" rx="10.4167" ry="10.4167" style="stroke:#2683B9;stroke-width:1.0416666666666667;"/><path d="M1272.9004,757.8115 Q1273.0143,757.6487 1273.1445,757.5673 Q1273.291,757.486 1273.4538,757.486 Q1273.7305,757.486 1273.8932,757.6813 Q1274.0723,757.8766 1274.0723,758.316 L1274.0723,759.3903 Q1274.0723,759.8297 1273.8932,760.025 Q1273.7305,760.2203 1273.4538,760.2203 Q1273.1934,760.2203 1273.0469,760.0739 Q1272.9004,759.9436 1272.819,759.553 Q1272.7865,759.2926 1272.6563,759.1624 Q1272.3958,758.8857 1271.9401,758.7229 Q1271.5007,758.5602 1271.0449,758.5602 Q1270.4915,758.5602 1270.0195,758.8043 Q1269.5475,759.0485 1269.1895,759.6018 Q1268.8314,760.139 1268.8314,760.9039 L1268.8314,761.7177 Q1268.8314,762.6129 1269.4824,763.2151 Q1270.1497,763.8173 1271.3053,763.8173 Q1272.0052,763.8173 1272.4935,763.6383 Q1272.7702,763.5244 1273.0794,763.1989 Q1273.2747,763.0035 1273.3887,762.9547 Q1273.5026,762.8896 1273.6328,762.8896 Q1273.8932,762.8896 1274.0723,763.0849 Q1274.2676,763.264 1274.2676,763.5244 Q1274.2676,763.7848 1274.0072,764.0778 Q1273.6328,764.5009 1273.0469,764.7451 Q1272.2656,765.0706 1271.3216,765.0706 Q1270.1986,765.0706 1269.3197,764.6149 Q1268.5872,764.2568 1268.0827,763.4593 Q1267.5781,762.6617 1267.5781,761.734 L1267.5781,760.8877 Q1267.5781,759.9111 1268.0339,759.0647 Q1268.4896,758.2184 1269.2871,757.7627 Q1270.1009,757.3069 1270.9961,757.3069 Q1271.5495,757.3069 1272.0215,757.4371 Q1272.4935,757.5511 1272.9004,757.8115 Z " fill="#2FA4E7"/><text fill="#343A40" font-family="Segoe UI" font-size="12.5" font-style="italic" lengthAdjust="spacing" textLength="40.625" x="1334.375" y="753.0721">&#171;block&#187;</text><text fill="#343A40" font-family="Segoe UI" font-size="11.4583" font-weight="bold" lengthAdjust="spacing" textLength="120.8333" x="1294.2708" y="778.9907">SupportingInstrument</text><line style="stroke:#1976D2;stroke-width:1.0416666666666667;" x1="1239.0625" x2="1441.1458" y1="792.2831" y2="792.2831"/><ellipse cx="1249.4792" cy="810.8409" fill="none" rx="3.125" ry="3.125" style="stroke:#2683B9;stroke-width:1.0416666666666667;"/><text fill="#343A40" font-family="Segoe UI" font-size="11.4583" lengthAdjust="spacing" textLength="107.2917" x="1263.0208" y="814.0228">instrumentId: String</text><ellipse cx="1249.4792" cy="836.498" fill="none" rx="3.125" ry="3.125" style="stroke:#2683B9;stroke-width:1.0416666666666667;"/><text fill="#343A40" font-family="Segoe UI" font-size="11.4583" lengthAdjust="spacing" textLength="112.5" x="1263.0208" y="839.68">type: InstrumentType</text><ellipse cx="1249.4792" cy="862.1552" fill="none" rx="3.125" ry="3.125" style="stroke:#2683B9;stroke-width:1.0416666666666667;"/><text fill="#343A40" font-family="Segoe UI" font-size="11.4583" lengthAdjust="spacing" textLength="146.875" x="1263.0208" y="865.3371">measurementRange: Range</text><ellipse cx="1249.4792" cy="887.8123" fill="none" rx="3.125" ry="3.125" style="stroke:#2683B9;stroke-width:1.0416666666666667;"/><text fill="#343A40" font-family="Segoe UI" font-size="11.4583" lengthAdjust="spacing" textLength="78.125" x="1263.0208" y="890.9943">accuracy: Float</text><line style="stroke:#1976D2;stroke-width:1.0416666666666667;" x1="1239.0625" x2="1441.1458" y1="903.245" y2="903.245"/><ellipse cx="1249.4792" cy="921.8028" fill="none" rx="3.125" ry="3.125" style="stroke:#2683B9;stroke-width:1.0416666666666667;"/><text fill="#343A40" font-family="Segoe UI" font-size="11.4583" lengthAdjust="spacing" textLength="135.4167" x="1263.0208" y="924.9847">takeMeasurement(): Float</text><ellipse cx="1249.4792" cy="947.4599" fill="none" rx="3.125" ry="3.125" style="stroke:#2683B9;stroke-width:1.0416666666666667;"/><text fill="#343A40" font-family="Segoe UI" font-size="11.4583" lengthAdjust="spacing" textLength="167.7083" x="1263.0208" y="950.6419">checkStatus(): InstrumentStatus</text></g><!--class InductiveLoopDetector--><g id="elem_InductiveLoopDetector"><rect codeLine="91" fill="#E3F2FD" filter="url(#fijssko81jdlk)" height="208.0688" id="InductiveLoopDetector" rx="5.2083" ry="5.2083" style="stroke:#1976D2;stroke-width:1.0416666666666667;" width="166.6667" x="238.0208" y="1025"/><ellipse cx="253.0729" cy="1056.5582" fill="none" rx="10.4167" ry="10.4167" style="stroke:#2683B9;stroke-width:1.0416666666666667;"/><path d="M254.6191,1053.6448 Q254.7331,1053.4821 254.8633,1053.4007 Q255.0098,1053.3193 255.1725,1053.3193 Q255.4492,1053.3193 255.612,1053.5146 Q255.791,1053.7099 255.791,1054.1494 L255.791,1055.2236 Q255.791,1055.663 255.612,1055.8584 Q255.4492,1056.0537 255.1725,1056.0537 Q254.9121,1056.0537 254.7656,1055.9072 Q254.6191,1055.777 254.5378,1055.3864 Q254.5052,1055.1259 254.375,1054.9957 Q254.1146,1054.719 253.6589,1054.5563 Q253.2194,1054.3935 252.7637,1054.3935 Q252.2103,1054.3935 251.7383,1054.6377 Q251.2663,1054.8818 250.9082,1055.4352 Q250.5501,1055.9723 250.5501,1056.7373 L250.5501,1057.5511 Q250.5501,1058.4462 251.2012,1059.0485 Q251.8685,1059.6507 253.0241,1059.6507 Q253.724,1059.6507 254.2122,1059.4716 Q254.4889,1059.3577 254.7982,1059.0322 Q254.9935,1058.8369 255.1074,1058.788 Q255.2214,1058.7229 255.3516,1058.7229 Q255.612,1058.7229 255.791,1058.9183 Q255.9863,1059.0973 255.9863,1059.3577 Q255.9863,1059.6181 255.7259,1059.9111 Q255.3516,1060.3343 254.7656,1060.5784 Q253.9844,1060.9039 253.0404,1060.9039 Q251.9173,1060.9039 251.0384,1060.4482 Q250.306,1060.0901 249.8014,1059.2926 Q249.2969,1058.4951 249.2969,1057.5673 L249.2969,1056.721 Q249.2969,1055.7444 249.7526,1054.8981 Q250.2083,1054.0517 251.0059,1053.596 Q251.8197,1053.1403 252.7148,1053.1403 Q253.2682,1053.1403 253.7402,1053.2705 Q254.2122,1053.3844 254.6191,1053.6448 Z " fill="#2FA4E7"/><text fill="#343A40" font-family="Segoe UI" font-size="12.5" font-style="italic" lengthAdjust="spacing" textLength="40.625" x="313.5938" y="1048.9054">&#171;block&#187;</text><text fill="#343A40" font-family="Segoe UI" font-size="11.4583" font-weight="bold" lengthAdjust="spacing" textLength="123.9583" x="271.9271" y="1074.824">InductiveLoopDetector</text><line style="stroke:#1976D2;stroke-width:1.0416666666666667;" x1="239.0625" x2="403.6458" y1="1088.1165" y2="1088.1165"/><ellipse cx="249.4792" cy="1106.6742" fill="none" rx="3.125" ry="3.125" style="stroke:#2683B9;stroke-width:1.0416666666666667;"/><text fill="#343A40" font-family="Segoe UI" font-size="11.4583" lengthAdjust="spacing" textLength="73.9583" x="263.0208" y="1109.8562">loopId: String</text><ellipse cx="249.4792" cy="1132.3313" fill="none" rx="3.125" ry="3.125" style="stroke:#2683B9;stroke-width:1.0416666666666667;"/><text fill="#343A40" font-family="Segoe UI" font-size="11.4583" lengthAdjust="spacing" textLength="130.2083" x="263.0208" y="1135.5133">sensingFrequency: Float</text><ellipse cx="249.4792" cy="1157.9885" fill="none" rx="3.125" ry="3.125" style="stroke:#2683B9;stroke-width:1.0416666666666667;"/><text fill="#343A40" font-family="Segoe UI" font-size="11.4583" lengthAdjust="spacing" textLength="92.7083" x="263.0208" y="1161.1705">inductance: Float</text><line style="stroke:#1976D2;stroke-width:1.0416666666666667;" x1="239.0625" x2="403.6458" y1="1173.4212" y2="1173.4212"/><ellipse cx="249.4792" cy="1191.979" fill="none" rx="3.125" ry="3.125" style="stroke:#2683B9;stroke-width:1.0416666666666667;"/><text fill="#343A40" font-family="Segoe UI" font-size="11.4583" lengthAdjust="spacing" textLength="128.125" x="263.0208" y="1195.1609">detectVehicle(): Boolean</text><ellipse cx="249.4792" cy="1217.6361" fill="none" rx="3.125" ry="3.125" style="stroke:#2683B9;stroke-width:1.0416666666666667;"/><text fill="#343A40" font-family="Segoe UI" font-size="11.4583" lengthAdjust="spacing" textLength="129.1667" x="263.0208" y="1220.8181">getAnalogSignal(): Float</text></g><!--class AnalogToDigitalConverter--><g id="elem_AnalogToDigitalConverter"><rect codeLine="100" fill="#E3F2FD" filter="url(#fijssko81jdlk)" height="208.0688" id="AnalogToDigitalConverter" rx="5.2083" ry="5.2083" style="stroke:#1976D2;stroke-width:1.0416666666666667;" width="204.1667" x="923.4375" y="1025"/><ellipse cx="947.3958" cy="1056.5582" fill="none" rx="10.4167" ry="10.4167" style="stroke:#2683B9;stroke-width:1.0416666666666667;"/><path d="M948.9421,1053.6448 Q949.056,1053.4821 949.1862,1053.4007 Q949.3327,1053.3193 949.4954,1053.3193 Q949.7721,1053.3193 949.9349,1053.5146 Q950.1139,1053.7099 950.1139,1054.1494 L950.1139,1055.2236 Q950.1139,1055.663 949.9349,1055.8584 Q949.7721,1056.0537 949.4954,1056.0537 Q949.235,1056.0537 949.0885,1055.9072 Q948.9421,1055.777 948.8607,1055.3864 Q948.8281,1055.1259 948.6979,1054.9957 Q948.4375,1054.719 947.9818,1054.5563 Q947.5423,1054.3935 947.0866,1054.3935 Q946.5332,1054.3935 946.0612,1054.6377 Q945.5892,1054.8818 945.2311,1055.4352 Q944.873,1055.9723 944.873,1056.7373 L944.873,1057.5511 Q944.873,1058.4462 945.5241,1059.0485 Q946.1914,1059.6507 947.347,1059.6507 Q948.0469,1059.6507 948.5352,1059.4716 Q948.8118,1059.3577 949.1211,1059.0322 Q949.3164,1058.8369 949.4303,1058.788 Q949.5443,1058.7229 949.6745,1058.7229 Q949.9349,1058.7229 950.1139,1058.9183 Q950.3092,1059.0973 950.3092,1059.3577 Q950.3092,1059.6181 950.0488,1059.9111 Q949.6745,1060.3343 949.0885,1060.5784 Q948.3073,1060.9039 947.3633,1060.9039 Q946.2402,1060.9039 945.3613,1060.4482 Q944.6289,1060.0901 944.1243,1059.2926 Q943.6198,1058.4951 943.6198,1057.5673 L943.6198,1056.721 Q943.6198,1055.7444 944.0755,1054.8981 Q944.5313,1054.0517 945.3288,1053.596 Q946.1426,1053.1403 947.0378,1053.1403 Q947.5911,1053.1403 948.0632,1053.2705 Q948.5352,1053.3844 948.9421,1053.6448 Z " fill="#2FA4E7"/><text fill="#343A40" font-family="Segoe UI" font-size="12.5" font-style="italic" lengthAdjust="spacing" textLength="40.625" x="1018.75" y="1048.9054">&#171;block&#187;</text><text fill="#343A40" font-family="Segoe UI" font-size="11.4583" font-weight="bold" lengthAdjust="spacing" textLength="141.6667" x="968.2292" y="1074.824">AnalogToDigitalConverter</text><line style="stroke:#1976D2;stroke-width:1.0416666666666667;" x1="924.4792" x2="1126.5625" y1="1088.1165" y2="1088.1165"/><ellipse cx="934.8958" cy="1106.6742" fill="none" rx="3.125" ry="3.125" style="stroke:#2683B9;stroke-width:1.0416666666666667;"/><text fill="#343A40" font-family="Segoe UI" font-size="11.4583" lengthAdjust="spacing" textLength="67.7083" x="948.4375" y="1109.8562">adcId: String</text><ellipse cx="934.8958" cy="1132.3313" fill="none" rx="3.125" ry="3.125" style="stroke:#2683B9;stroke-width:1.0416666666666667;"/><text fill="#343A40" font-family="Segoe UI" font-size="11.4583" lengthAdjust="spacing" textLength="118.75" x="948.4375" y="1135.5133">resolutionBits: Integer</text><ellipse cx="934.8958" cy="1157.9885" fill="none" rx="3.125" ry="3.125" style="stroke:#2683B9;stroke-width:1.0416666666666667;"/><text fill="#343A40" font-family="Segoe UI" font-size="11.4583" lengthAdjust="spacing" textLength="106.25" x="948.4375" y="1161.1705">samplingRate: Float</text><line style="stroke:#1976D2;stroke-width:1.0416666666666667;" x1="924.4792" x2="1126.5625" y1="1173.4212" y2="1173.4212"/><ellipse cx="934.8958" cy="1191.979" fill="none" rx="3.125" ry="3.125" style="stroke:#2683B9;stroke-width:1.0416666666666667;"/><text fill="#343A40" font-family="Segoe UI" font-size="11.4583" lengthAdjust="spacing" textLength="156.25" x="948.4375" y="1195.1609">convert(signal: Float): Integer</text><ellipse cx="934.8958" cy="1217.6361" fill="none" rx="3.125" ry="3.125" style="stroke:#2683B9;stroke-width:1.0416666666666667;"/><text fill="#343A40" font-family="Segoe UI" font-size="11.4583" lengthAdjust="spacing" textLength="167.7083" x="948.4375" y="1220.8181">selectChannel(ch: Integer): void</text></g><!--class SerialCommunicationBus--><g id="elem_SerialCommunicationBus"><rect codeLine="109" fill="#E3F2FD" filter="url(#fijssko81jdlk)" height="208.0688" id="SerialCommunicationBus" rx="5.2083" ry="5.2083" style="stroke:#1976D2;stroke-width:1.0416666666666667;" width="177.0833" x="1426.5625" y="1025"/><ellipse cx="1441.1458" cy="1056.5582" fill="none" rx="10.4167" ry="10.4167" style="stroke:#2683B9;stroke-width:1.0416666666666667;"/><path d="M1442.6921,1053.6448 Q1442.806,1053.4821 1442.9362,1053.4007 Q1443.0827,1053.3193 1443.2454,1053.3193 Q1443.5221,1053.3193 1443.6849,1053.5146 Q1443.8639,1053.7099 1443.8639,1054.1494 L1443.8639,1055.2236 Q1443.8639,1055.663 1443.6849,1055.8584 Q1443.5221,1056.0537 1443.2454,1056.0537 Q1442.985,1056.0537 1442.8385,1055.9072 Q1442.6921,1055.777 1442.6107,1055.3864 Q1442.5781,1055.1259 1442.4479,1054.9957 Q1442.1875,1054.719 1441.7318,1054.5563 Q1441.2923,1054.3935 1440.8366,1054.3935 Q1440.2832,1054.3935 1439.8112,1054.6377 Q1439.3392,1054.8818 1438.9811,1055.4352 Q1438.623,1055.9723 1438.623,1056.7373 L1438.623,1057.5511 Q1438.623,1058.4462 1439.2741,1059.0485 Q1439.9414,1059.6507 1441.097,1059.6507 Q1441.7969,1059.6507 1442.2852,1059.4716 Q1442.5618,1059.3577 1442.8711,1059.0322 Q1443.0664,1058.8369 1443.1803,1058.788 Q1443.2943,1058.7229 1443.4245,1058.7229 Q1443.6849,1058.7229 1443.8639,1058.9183 Q1444.0592,1059.0973 1444.0592,1059.3577 Q1444.0592,1059.6181 1443.7988,1059.9111 Q1443.4245,1060.3343 1442.8385,1060.5784 Q1442.0573,1060.9039 1441.1133,1060.9039 Q1439.9902,1060.9039 1439.1113,1060.4482 Q1438.3789,1060.0901 1437.8743,1059.2926 Q1437.3698,1058.4951 1437.3698,1057.5673 L1437.3698,1056.721 Q1437.3698,1055.7444 1437.8255,1054.8981 Q1438.2813,1054.0517 1439.0788,1053.596 Q1439.8926,1053.1403 1440.7878,1053.1403 Q1441.3411,1053.1403 1441.8132,1053.2705 Q1442.2852,1053.3844 1442.6921,1053.6448 Z " fill="#2FA4E7"/><text fill="#343A40" font-family="Segoe UI" font-size="12.5" font-style="italic" lengthAdjust="spacing" textLength="40.625" x="1507.2917" y="1048.9054">&#171;block&#187;</text><text fill="#343A40" font-family="Segoe UI" font-size="11.4583" font-weight="bold" lengthAdjust="spacing" textLength="135.4167" x="1459.8958" y="1074.824">SerialCommunicationBus</text><line style="stroke:#1976D2;stroke-width:1.0416666666666667;" x1="1427.6042" x2="1602.6042" y1="1088.1165" y2="1088.1165"/><ellipse cx="1438.0208" cy="1106.6742" fill="none" rx="3.125" ry="3.125" style="stroke:#2683B9;stroke-width:1.0416666666666667;"/><text fill="#343A40" font-family="Segoe UI" font-size="11.4583" lengthAdjust="spacing" textLength="68.75" x="1451.5625" y="1109.8562">busId: String</text><ellipse cx="1438.0208" cy="1132.3313" fill="none" rx="3.125" ry="3.125" style="stroke:#2683B9;stroke-width:1.0416666666666667;"/><text fill="#343A40" font-family="Segoe UI" font-size="11.4583" lengthAdjust="spacing" textLength="96.875" x="1451.5625" y="1135.5133">baudRate: Integer</text><ellipse cx="1438.0208" cy="1157.9885" fill="none" rx="3.125" ry="3.125" style="stroke:#2683B9;stroke-width:1.0416666666666667;"/><text fill="#343A40" font-family="Segoe UI" font-size="11.4583" lengthAdjust="spacing" textLength="96.875" x="1451.5625" y="1161.1705">protocol: Protocol</text><line style="stroke:#1976D2;stroke-width:1.0416666666666667;" x1="1427.6042" x2="1602.6042" y1="1173.4212" y2="1173.4212"/><ellipse cx="1438.0208" cy="1191.979" fill="none" rx="3.125" ry="3.125" style="stroke:#2683B9;stroke-width:1.0416666666666667;"/><text fill="#343A40" font-family="Segoe UI" font-size="11.4583" lengthAdjust="spacing" textLength="137.5" x="1451.5625" y="1195.1609">transmit(data: Byte[]): void</text><ellipse cx="1438.0208" cy="1217.6361" fill="none" rx="3.125" ry="3.125" style="stroke:#2683B9;stroke-width:1.0416666666666667;"/><text fill="#343A40" font-family="Segoe UI" font-size="11.4583" lengthAdjust="spacing" textLength="77.0833" x="1451.5625" y="1220.8181">receive(): Byte[]</text></g><!--class Sensor--><g id="elem_Sensor"><rect codeLine="119" fill="#E3F2FD" filter="url(#fijssko81jdlk)" height="208.0688" id="Sensor" rx="5.2083" ry="5.2083" style="stroke:#1976D2;stroke-width:1.0416666666666667;" width="159.375" x="256.25" y="445.8333"/><ellipse cx="308.3333" cy="477.3916" fill="none" rx="10.4167" ry="10.4167" style="stroke:#2683B9;stroke-width:1.0416666666666667;"/><path d="M309.9609,479.54 L306.9336,479.54 L306.6243,480.305 L306.9336,480.305 Q307.373,480.305 307.5684,480.484 Q307.7637,480.6468 307.7637,480.9397 Q307.7637,481.2164 307.5684,481.3955 Q307.373,481.5582 306.9336,481.5582 L305.2409,481.5582 Q304.7852,481.5582 304.6061,481.3955 Q304.4108,481.2164 304.4108,480.9235 Q304.4108,480.6468 304.6224,480.4677 Q304.8177,480.2887 305.2734,480.305 L307.2428,475.4059 L306.429,475.4059 Q305.9733,475.4059 305.778,475.2431 Q305.5827,475.0641 305.5827,474.7874 Q305.5827,474.4944 305.778,474.3317 Q305.9733,474.1526 306.429,474.1526 L309.1309,474.1526 L311.6211,480.305 Q312.0605,480.305 312.1908,480.4026 Q312.4837,480.5979 312.4837,480.9397 Q312.4837,481.2164 312.2884,481.3955 Q312.0931,481.5582 311.6536,481.5582 L309.9609,481.5582 Q309.5052,481.5582 309.3099,481.3955 Q309.1309,481.2164 309.1309,480.9235 Q309.1309,480.6468 309.3099,480.484 Q309.5052,480.305 309.9609,480.305 L310.2702,480.305 L309.9609,479.54 Z M309.4564,478.2867 L308.4473,475.8128 L307.4219,478.2867 L309.4564,478.2867 Z " fill="#2FA4E7"/><text fill="#343A40" font-family="Segoe UI" font-size="12.5" font-style="italic" lengthAdjust="spacing" textLength="40.625" x="331.25" y="469.7388">&#171;block&#187;</text><text fill="#343A40" font-family="Segoe UI" font-size="11.4583" font-style="italic" font-weight="bold" lengthAdjust="spacing" textLength="35.4167" x="333.8542" y="495.6573">Sensor</text><line style="stroke:#1976D2;stroke-width:1.0416666666666667;" x1="257.2917" x2="414.5833" y1="508.9498" y2="508.9498"/><ellipse cx="267.7083" cy="527.5075" fill="none" rx="3.125" ry="3.125" style="stroke:#2683B9;stroke-width:1.0416666666666667;"/><text fill="#343A40" font-family="Segoe UI" font-size="11.4583" lengthAdjust="spacing" textLength="84.375" x="281.25" y="530.6895">sensorId: String</text><ellipse cx="267.7083" cy="553.1647" fill="none" rx="3.125" ry="3.125" style="stroke:#2683B9;stroke-width:1.0416666666666667;"/><text fill="#343A40" font-family="Segoe UI" font-size="11.4583" lengthAdjust="spacing" textLength="113.5417" x="281.25" y="556.3466">calibrationDate: Date</text><ellipse cx="267.7083" cy="578.8218" fill="none" rx="3.125" ry="3.125" style="stroke:#2683B9;stroke-width:1.0416666666666667;"/><text fill="#343A40" font-family="Segoe UI" font-size="11.4583" lengthAdjust="spacing" textLength="122.9167" x="281.25" y="582.0038">isOperational: Boolean</text><line style="stroke:#1976D2;stroke-width:1.0416666666666667;" x1="257.2917" x2="414.5833" y1="594.2546" y2="594.2546"/><ellipse cx="267.7083" cy="612.8123" fill="none" rx="3.125" ry="3.125" style="stroke:#2683B9;stroke-width:1.0416666666666667;"/><text fill="#343A40" font-family="Segoe UI" font-size="11.4583" lengthAdjust="spacing" textLength="81.25" x="281.25" y="615.9943">calibrate(): void</text><ellipse cx="267.7083" cy="638.4694" fill="none" rx="3.125" ry="3.125" style="stroke:#2683B9;stroke-width:1.0416666666666667;"/><text fill="#343A40" font-family="Segoe UI" font-size="11.4583" lengthAdjust="spacing" textLength="108.3333" x="281.25" y="641.6514">selfTest(): TestResult</text></g><!--class CommunicationInterface--><g id="elem_CommunicationInterface"><rect codeLine="128" fill="#E3F2FD" filter="url(#fijssko81jdlk)" height="182.4117" id="CommunicationInterface" rx="5.2083" ry="5.2083" style="stroke:#1976D2;stroke-width:1.0416666666666667;" width="175" x="913.0208" y="458.8542"/><ellipse cx="927.6042" cy="490.4124" fill="none" rx="10.4167" ry="10.4167" style="stroke:#2683B9;stroke-width:1.0416666666666667;"/><path d="M929.2318,492.5608 L926.2044,492.5608 L925.8952,493.3258 L926.2044,493.3258 Q926.6439,493.3258 926.8392,493.5048 Q927.0345,493.6676 927.0345,493.9606 Q927.0345,494.2373 926.8392,494.4163 Q926.6439,494.5791 926.2044,494.5791 L924.5117,494.5791 Q924.056,494.5791 923.877,494.4163 Q923.6816,494.2373 923.6816,493.9443 Q923.6816,493.6676 923.8932,493.4886 Q924.0885,493.3095 924.5443,493.3258 L926.5137,488.4267 L925.6999,488.4267 Q925.2441,488.4267 925.0488,488.264 Q924.8535,488.0849 924.8535,487.8082 Q924.8535,487.5153 925.0488,487.3525 Q925.2441,487.1735 925.6999,487.1735 L928.4017,487.1735 L930.8919,493.3258 Q931.3314,493.3258 931.4616,493.4235 Q931.7546,493.6188 931.7546,493.9606 Q931.7546,494.2373 931.5592,494.4163 Q931.3639,494.5791 930.9245,494.5791 L929.2318,494.5791 Q928.776,494.5791 928.5807,494.4163 Q928.4017,494.2373 928.4017,493.9443 Q928.4017,493.6676 928.5807,493.5048 Q928.776,493.3258 929.2318,493.3258 L929.541,493.3258 L929.2318,492.5608 Z M928.7272,491.3076 L927.7181,488.8336 L926.6927,491.3076 L928.7272,491.3076 Z " fill="#2FA4E7"/><text fill="#343A40" font-family="Segoe UI" font-size="12.5" font-style="italic" lengthAdjust="spacing" textLength="40.625" x="992.7083" y="482.7596">&#171;block&#187;</text><text fill="#343A40" font-family="Segoe UI" font-size="11.4583" font-style="italic" font-weight="bold" lengthAdjust="spacing" textLength="133.3333" x="946.3542" y="508.6782">CommunicationInterface</text><line style="stroke:#1976D2;stroke-width:1.0416666666666667;" x1="914.0625" x2="1086.9792" y1="521.9706" y2="521.9706"/><ellipse cx="924.4792" cy="540.5284" fill="none" rx="3.125" ry="3.125" style="stroke:#2683B9;stroke-width:1.0416666666666667;"/><text fill="#343A40" font-family="Segoe UI" font-size="11.4583" lengthAdjust="spacing" textLength="95.8333" x="938.0208" y="543.7103">interfaceId: String</text><ellipse cx="924.4792" cy="566.1855" fill="none" rx="3.125" ry="3.125" style="stroke:#2683B9;stroke-width:1.0416666666666667;"/><text fill="#343A40" font-family="Segoe UI" font-size="11.4583" lengthAdjust="spacing" textLength="84.375" x="938.0208" y="569.3675">protocol: String</text><line style="stroke:#1976D2;stroke-width:1.0416666666666667;" x1="914.0625" x2="1086.9792" y1="581.6182" y2="581.6182"/><ellipse cx="924.4792" cy="600.176" fill="none" rx="3.125" ry="3.125" style="stroke:#2683B9;stroke-width:1.0416666666666667;"/><text fill="#343A40" font-family="Segoe UI" font-size="11.4583" lengthAdjust="spacing" textLength="121.875" x="938.0208" y="603.358">send(data: Any): Status</text><ellipse cx="924.4792" cy="625.8331" fill="none" rx="3.125" ry="3.125" style="stroke:#2683B9;stroke-width:1.0416666666666667;"/><text fill="#343A40" font-family="Segoe UI" font-size="11.4583" lengthAdjust="spacing" textLength="68.75" x="938.0208" y="629.0151">receive(): Any</text></g><!--class OperationalMode--><g id="elem_OperationalMode"><rect codeLine="137" fill="#FFF3E0" filter="url(#fijssko81jdlk)" height="182.4117" id="OperationalMode" rx="5.2083" ry="5.2083" style="stroke:#F57C00;stroke-width:1.0416666666666667;" width="137.5" x="267.1875" y="754.6875"/><ellipse cx="281.7708" cy="786.2457" fill="none" rx="10.4167" ry="10.4167" style="stroke:#2683B9;stroke-width:1.0416666666666667;"/><path d="M281.6406,787.3199 L281.6406,789.1591 L284.8307,789.1591 L284.8307,788.4755 Q284.8307,788.0361 284.9935,787.8408 Q285.1725,787.6455 285.4492,787.6455 Q285.7259,787.6455 285.9049,787.8408 Q286.084,788.0361 286.084,788.4755 L286.084,790.4124 L280.1921,790.4124 Q279.7363,790.4124 279.541,790.2496 Q279.3457,790.0706 279.3457,789.7776 Q279.3457,789.5009 279.541,789.3382 Q279.7363,789.1591 280.1921,789.1591 L280.3874,789.1591 L280.3874,784.2601 L280.1921,784.2601 Q279.7363,784.2601 279.541,784.0973 Q279.3457,783.9183 279.3457,783.6416 Q279.3457,783.3486 279.541,783.1858 Q279.7363,783.0068 280.1921,783.0068 L285.8073,783.0068 L285.8073,784.9111 Q285.8073,785.3668 285.6283,785.5621 Q285.4655,785.7412 285.1725,785.7412 Q284.8958,785.7412 284.7168,785.5621 Q284.554,785.3668 284.554,784.9111 L284.554,784.2601 L281.6406,784.2601 L281.6406,786.0667 L282.7311,786.0667 Q282.7311,785.5784 282.8288,785.4482 Q283.0078,785.139 283.3659,785.139 Q283.6426,785.139 283.8053,785.3343 Q283.9844,785.5296 283.9844,785.9853 L283.9844,787.4176 Q283.9844,787.8245 283.8867,787.971 Q283.6914,788.264 283.3659,788.264 Q283.0078,788.264 282.8288,787.9547 Q282.7311,787.8245 282.7311,787.3199 L281.6406,787.3199 Z " fill="#2FA4E7"/><text fill="#343A40" font-family="Segoe UI" font-size="12.5" font-style="italic" lengthAdjust="spacing" textLength="68.75" x="314.0625" y="778.5929">&#171;valueType&#187;</text><text fill="#343A40" font-family="Segoe UI" font-size="11.4583" font-weight="bold" lengthAdjust="spacing" textLength="95.8333" x="300.5208" y="804.5115">OperationalMode</text><line style="stroke:#F57C00;stroke-width:1.0416666666666667;" x1="268.2292" x2="403.6458" y1="817.804" y2="817.804"/><text fill="#343A40" font-family="Segoe UI" font-size="11.4583" lengthAdjust="spacing" textLength="48.9583" x="278.6458" y="839.5437">&#128994; Normal</text><text fill="#343A40" font-family="Segoe UI" font-size="11.4583" lengthAdjust="spacing" textLength="80.2083" x="278.6458" y="865.2008">&#128993; Maintenance</text><text fill="#343A40" font-family="Segoe UI" font-size="11.4583" lengthAdjust="spacing" textLength="67.7083" x="278.6458" y="890.858">&#128308; Emergency</text><text fill="#343A40" font-family="Segoe UI" font-size="11.4583" lengthAdjust="spacing" textLength="37.5" x="278.6458" y="916.5151">&#9899; Fault</text><line style="stroke:#F57C00;stroke-width:1.0416666666666667;" x1="268.2292" x2="403.6458" y1="928.7659" y2="928.7659"/></g><!--class LightColor--><g id="elem_LightColor"><rect codeLine="144" fill="#FFF3E0" filter="url(#fijssko81jdlk)" height="182.4117" id="LightColor" rx="5.2083" ry="5.2083" style="stroke:#F57C00;stroke-width:1.0416666666666667;" width="106.25" x="441.1458" y="1038.0208"/><ellipse cx="455.7292" cy="1069.5791" fill="none" rx="10.4167" ry="10.4167" style="stroke:#2683B9;stroke-width:1.0416666666666667;"/><path d="M455.599,1070.6533 L455.599,1072.4925 L458.7891,1072.4925 L458.7891,1071.8089 Q458.7891,1071.3694 458.9518,1071.1741 Q459.1309,1070.9788 459.4076,1070.9788 Q459.6842,1070.9788 459.8633,1071.1741 Q460.0423,1071.3694 460.0423,1071.8089 L460.0423,1073.7457 L454.1504,1073.7457 Q453.6947,1073.7457 453.4993,1073.583 Q453.304,1073.4039 453.304,1073.111 Q453.304,1072.8343 453.4993,1072.6715 Q453.6947,1072.4925 454.1504,1072.4925 L454.3457,1072.4925 L454.3457,1067.5934 L454.1504,1067.5934 Q453.6947,1067.5934 453.4993,1067.4306 Q453.304,1067.2516 453.304,1066.9749 Q453.304,1066.6819 453.4993,1066.5192 Q453.6947,1066.3401 454.1504,1066.3401 L459.7656,1066.3401 L459.7656,1068.2444 Q459.7656,1068.7002 459.5866,1068.8955 Q459.4238,1069.0745 459.1309,1069.0745 Q458.8542,1069.0745 458.6751,1068.8955 Q458.5124,1068.7002 458.5124,1068.2444 L458.5124,1067.5934 L455.599,1067.5934 L455.599,1069.4 L456.6895,1069.4 Q456.6895,1068.9117 456.7871,1068.7815 Q456.9661,1068.4723 457.3242,1068.4723 Q457.6009,1068.4723 457.7637,1068.6676 Q457.9427,1068.8629 457.9427,1069.3186 L457.9427,1070.7509 Q457.9427,1071.1578 457.8451,1071.3043 Q457.6497,1071.5973 457.3242,1071.5973 Q456.9661,1071.5973 456.7871,1071.288 Q456.6895,1071.1578 456.6895,1070.6533 L455.599,1070.6533 Z " fill="#2FA4E7"/><text fill="#343A40" font-family="Segoe UI" font-size="12.5" font-style="italic" lengthAdjust="spacing" textLength="68.75" x="472.3958" y="1061.9263">&#171;valueType&#187;</text><text fill="#343A40" font-family="Segoe UI" font-size="11.4583" font-weight="bold" lengthAdjust="spacing" textLength="57.2917" x="478.125" y="1087.8448">LightColor</text><line style="stroke:#F57C00;stroke-width:1.0416666666666667;" x1="442.1875" x2="546.3542" y1="1101.1373" y2="1101.1373"/><text fill="#343A40" font-family="Segoe UI" font-size="11.4583" lengthAdjust="spacing" textLength="31.25" x="452.6042" y="1122.877">&#128308; Red</text><text fill="#343A40" font-family="Segoe UI" font-size="11.4583" lengthAdjust="spacing" textLength="44.7917" x="452.6042" y="1148.5341">&#128993; Yellow</text><text fill="#343A40" font-family="Segoe UI" font-size="11.4583" lengthAdjust="spacing" textLength="42.7083" x="452.6042" y="1174.1913">&#128994; Green</text><text fill="#343A40" font-family="Segoe UI" font-size="11.4583" lengthAdjust="spacing" textLength="28.125" x="452.6042" y="1199.8484">&#9899; Off</text><line style="stroke:#F57C00;stroke-width:1.0416666666666667;" x1="442.1875" x2="546.3542" y1="1212.0992" y2="1212.0992"/></g><!--class Direction--><g id="elem_Direction"><rect codeLine="151" fill="#FFF3E0" filter="url(#fijssko81jdlk)" height="182.4117" id="Direction" rx="5.2083" ry="5.2083" style="stroke:#F57C00;stroke-width:1.0416666666666667;" width="106.25" x="780.7292" y="1038.0208"/><ellipse cx="795.3125" cy="1069.5791" fill="none" rx="10.4167" ry="10.4167" style="stroke:#2683B9;stroke-width:1.0416666666666667;"/><path d="M795.1823,1070.6533 L795.1823,1072.4925 L798.3724,1072.4925 L798.3724,1071.8089 Q798.3724,1071.3694 798.5352,1071.1741 Q798.7142,1070.9788 798.9909,1070.9788 Q799.2676,1070.9788 799.4466,1071.1741 Q799.6257,1071.3694 799.6257,1071.8089 L799.6257,1073.7457 L793.7337,1073.7457 Q793.278,1073.7457 793.0827,1073.583 Q792.8874,1073.4039 792.8874,1073.111 Q792.8874,1072.8343 793.0827,1072.6715 Q793.278,1072.4925 793.7337,1072.4925 L793.929,1072.4925 L793.929,1067.5934 L793.7337,1067.5934 Q793.278,1067.5934 793.0827,1067.4306 Q792.8874,1067.2516 792.8874,1066.9749 Q792.8874,1066.6819 793.0827,1066.5192 Q793.278,1066.3401 793.7337,1066.3401 L799.349,1066.3401 L799.349,1068.2444 Q799.349,1068.7002 799.1699,1068.8955 Q799.0072,1069.0745 798.7142,1069.0745 Q798.4375,1069.0745 798.2585,1068.8955 Q798.0957,1068.7002 798.0957,1068.2444 L798.0957,1067.5934 L795.1823,1067.5934 L795.1823,1069.4 L796.2728,1069.4 Q796.2728,1068.9117 796.3704,1068.7815 Q796.5495,1068.4723 796.9076,1068.4723 Q797.1842,1068.4723 797.347,1068.6676 Q797.526,1068.8629 797.526,1069.3186 L797.526,1070.7509 Q797.526,1071.1578 797.4284,1071.3043 Q797.2331,1071.5973 796.9076,1071.5973 Q796.5495,1071.5973 796.3704,1071.288 Q796.2728,1071.1578 796.2728,1070.6533 L795.1823,1070.6533 Z " fill="#2FA4E7"/><text fill="#343A40" font-family="Segoe UI" font-size="12.5" font-style="italic" lengthAdjust="spacing" textLength="68.75" x="811.9792" y="1061.9263">&#171;valueType&#187;</text><text fill="#343A40" font-family="Segoe UI" font-size="11.4583" font-weight="bold" lengthAdjust="spacing" textLength="48.9583" x="821.875" y="1087.8448">Direction</text><line style="stroke:#F57C00;stroke-width:1.0416666666666667;" x1="781.7708" x2="885.9375" y1="1101.1373" y2="1101.1373"/><text fill="#343A40" font-family="Segoe UI" font-size="11.4583" lengthAdjust="spacing" textLength="48.9583" x="792.1875" y="1122.877">&#11014;&#65039; North</text><text fill="#343A40" font-family="Segoe UI" font-size="11.4583" lengthAdjust="spacing" textLength="50" x="792.1875" y="1148.5341">&#11015;&#65039; South</text><text fill="#343A40" font-family="Segoe UI" font-size="11.4583" lengthAdjust="spacing" textLength="39.5833" x="792.1875" y="1174.1913">&#10145;&#65039; East</text><text fill="#343A40" font-family="Segoe UI" font-size="11.4583" lengthAdjust="spacing" textLength="44.7917" x="792.1875" y="1199.8484">&#11013;&#65039; West</text><line style="stroke:#F57C00;stroke-width:1.0416666666666667;" x1="781.7708" x2="885.9375" y1="1212.0992" y2="1212.0992"/></g><!--class Protocol--><g id="elem_Protocol"><rect codeLine="158" fill="#FFF3E0" filter="url(#fijssko81jdlk)" height="156.7546" id="Protocol" rx="5.2083" ry="5.2083" style="stroke:#F57C00;stroke-width:1.0416666666666667;" width="106.25" x="1091.1458" y="1295.8333"/><ellipse cx="1105.7292" cy="1327.3916" fill="none" rx="10.4167" ry="10.4167" style="stroke:#2683B9;stroke-width:1.0416666666666667;"/><path d="M1105.599,1328.4658 L1105.599,1330.305 L1108.7891,1330.305 L1108.7891,1329.6214 Q1108.7891,1329.1819 1108.9518,1328.9866 Q1109.1309,1328.7913 1109.4076,1328.7913 Q1109.6842,1328.7913 1109.8633,1328.9866 Q1110.0423,1329.1819 1110.0423,1329.6214 L1110.0423,1331.5582 L1104.1504,1331.5582 Q1103.6947,1331.5582 1103.4993,1331.3955 Q1103.304,1331.2164 1103.304,1330.9235 Q1103.304,1330.6468 1103.4993,1330.484 Q1103.6947,1330.305 1104.1504,1330.305 L1104.3457,1330.305 L1104.3457,1325.4059 L1104.1504,1325.4059 Q1103.6947,1325.4059 1103.4993,1325.2431 Q1103.304,1325.0641 1103.304,1324.7874 Q1103.304,1324.4944 1103.4993,1324.3317 Q1103.6947,1324.1526 1104.1504,1324.1526 L1109.7656,1324.1526 L1109.7656,1326.0569 Q1109.7656,1326.5127 1109.5866,1326.708 Q1109.4238,1326.887 1109.1309,1326.887 Q1108.8542,1326.887 1108.6751,1326.708 Q1108.5124,1326.5127 1108.5124,1326.0569 L1108.5124,1325.4059 L1105.599,1325.4059 L1105.599,1327.2125 L1106.6895,1327.2125 Q1106.6895,1326.7242 1106.7871,1326.594 Q1106.9661,1326.2848 1107.3242,1326.2848 Q1107.6009,1326.2848 1107.7637,1326.4801 Q1107.9427,1326.6754 1107.9427,1327.1311 L1107.9427,1328.5634 Q1107.9427,1328.9703 1107.8451,1329.1168 Q1107.6497,1329.4098 1107.3242,1329.4098 Q1106.9661,1329.4098 1106.7871,1329.1005 Q1106.6895,1328.9703 1106.6895,1328.4658 L1105.599,1328.4658 Z " fill="#2FA4E7"/><text fill="#343A40" font-family="Segoe UI" font-size="12.5" font-style="italic" lengthAdjust="spacing" textLength="68.75" x="1122.3958" y="1319.7388">&#171;valueType&#187;</text><text fill="#343A40" font-family="Segoe UI" font-size="11.4583" font-weight="bold" lengthAdjust="spacing" textLength="45.8333" x="1133.8542" y="1345.6573">Protocol</text><line style="stroke:#F57C00;stroke-width:1.0416666666666667;" x1="1092.1875" x2="1196.3542" y1="1358.9498" y2="1358.9498"/><text fill="#343A40" font-family="Segoe UI" font-size="11.4583" lengthAdjust="spacing" textLength="32.2917" x="1102.6042" y="1380.6895">RS485</text><text fill="#343A40" font-family="Segoe UI" font-size="11.4583" lengthAdjust="spacing" textLength="22.9167" x="1102.6042" y="1406.3466">CAN</text><text fill="#343A40" font-family="Segoe UI" font-size="11.4583" lengthAdjust="spacing" textLength="45.8333" x="1102.6042" y="1432.0038">Ethernet</text><line style="stroke:#F57C00;stroke-width:1.0416666666666667;" x1="1092.1875" x2="1196.3542" y1="1444.2546" y2="1444.2546"/></g><!--class InstrumentType--><g id="elem_InstrumentType"><rect codeLine="164" fill="#FFF3E0" filter="url(#fijssko81jdlk)" height="156.7546" id="InstrumentType" rx="5.2083" ry="5.2083" style="stroke:#F57C00;stroke-width:1.0416666666666667;" width="127.0833" x="1233.8542" y="1295.8333"/><ellipse cx="1248.4375" cy="1327.3916" fill="none" rx="10.4167" ry="10.4167" style="stroke:#2683B9;stroke-width:1.0416666666666667;"/><path d="M1248.3073,1328.4658 L1248.3073,1330.305 L1251.4974,1330.305 L1251.4974,1329.6214 Q1251.4974,1329.1819 1251.6602,1328.9866 Q1251.8392,1328.7913 1252.1159,1328.7913 Q1252.3926,1328.7913 1252.5716,1328.9866 Q1252.7507,1329.1819 1252.7507,1329.6214 L1252.7507,1331.5582 L1246.8587,1331.5582 Q1246.403,1331.5582 1246.2077,1331.3955 Q1246.0124,1331.2164 1246.0124,1330.9235 Q1246.0124,1330.6468 1246.2077,1330.484 Q1246.403,1330.305 1246.8587,1330.305 L1247.054,1330.305 L1247.054,1325.4059 L1246.8587,1325.4059 Q1246.403,1325.4059 1246.2077,1325.2431 Q1246.0124,1325.0641 1246.0124,1324.7874 Q1246.0124,1324.4944 1246.2077,1324.3317 Q1246.403,1324.1526 1246.8587,1324.1526 L1252.474,1324.1526 L1252.474,1326.0569 Q1252.474,1326.5127 1252.2949,1326.708 Q1252.1322,1326.887 1251.8392,1326.887 Q1251.5625,1326.887 1251.3835,1326.708 Q1251.2207,1326.5127 1251.2207,1326.0569 L1251.2207,1325.4059 L1248.3073,1325.4059 L1248.3073,1327.2125 L1249.3978,1327.2125 Q1249.3978,1326.7242 1249.4954,1326.594 Q1249.6745,1326.2848 1250.0326,1326.2848 Q1250.3092,1326.2848 1250.472,1326.4801 Q1250.651,1326.6754 1250.651,1327.1311 L1250.651,1328.5634 Q1250.651,1328.9703 1250.5534,1329.1168 Q1250.3581,1329.4098 1250.0326,1329.4098 Q1249.6745,1329.4098 1249.4954,1329.1005 Q1249.3978,1328.9703 1249.3978,1328.4658 L1248.3073,1328.4658 Z " fill="#2FA4E7"/><text fill="#343A40" font-family="Segoe UI" font-size="12.5" font-style="italic" lengthAdjust="spacing" textLength="68.75" x="1275.5208" y="1319.7388">&#171;valueType&#187;</text><text fill="#343A40" font-family="Segoe UI" font-size="11.4583" font-weight="bold" lengthAdjust="spacing" textLength="85.4167" x="1267.1875" y="1345.6573">InstrumentType</text><line style="stroke:#F57C00;stroke-width:1.0416666666666667;" x1="1234.8958" x2="1359.8958" y1="1358.9498" y2="1358.9498"/><text fill="#343A40" font-family="Segoe UI" font-size="11.4583" lengthAdjust="spacing" textLength="77.0833" x="1245.3125" y="1380.6895">PowerMonitor</text><text fill="#343A40" font-family="Segoe UI" font-size="11.4583" lengthAdjust="spacing" textLength="104.1667" x="1245.3125" y="1406.3466">TemperatureSensor</text><text fill="#343A40" font-family="Segoe UI" font-size="11.4583" lengthAdjust="spacing" textLength="84.375" x="1245.3125" y="1432.0038">HumiditySensor</text><line style="stroke:#F57C00;stroke-width:1.0416666666666667;" x1="1234.8958" x2="1359.8958" y1="1444.2546" y2="1444.2546"/></g><!--class Duration--><g id="elem_Duration"><rect codeLine="170" fill="#FFF3E0" filter="url(#fijssko81jdlk)" height="131.0974" id="Duration" rx="5.2083" ry="5.2083" style="stroke:#F57C00;stroke-width:1.0416666666666667;" width="142.7083" x="1136.4583" y="1527.0833"/><ellipse cx="1167.4479" cy="1558.6416" fill="none" rx="10.4167" ry="10.4167" style="stroke:#2683B9;stroke-width:1.0416666666666667;"/><path d="M1168.9941,1555.7281 Q1169.1081,1555.5654 1169.2383,1555.484 Q1169.3848,1555.4026 1169.5475,1555.4026 Q1169.8242,1555.4026 1169.987,1555.5979 Q1170.166,1555.7933 1170.166,1556.2327 L1170.166,1557.3069 Q1170.166,1557.7464 1169.987,1557.9417 Q1169.8242,1558.137 1169.5475,1558.137 Q1169.2871,1558.137 1169.1406,1557.9905 Q1168.9941,1557.8603 1168.9128,1557.4697 Q1168.8802,1557.2093 1168.75,1557.0791 Q1168.4896,1556.8024 1168.0339,1556.6396 Q1167.5944,1556.4768 1167.1387,1556.4768 Q1166.5853,1556.4768 1166.1133,1556.721 Q1165.6413,1556.9651 1165.2832,1557.5185 Q1164.9251,1558.0556 1164.9251,1558.8206 L1164.9251,1559.6344 Q1164.9251,1560.5296 1165.5762,1561.1318 Q1166.2435,1561.734 1167.3991,1561.734 Q1168.099,1561.734 1168.5872,1561.555 Q1168.8639,1561.441 1169.1732,1561.1155 Q1169.3685,1560.9202 1169.4824,1560.8714 Q1169.5964,1560.8063 1169.7266,1560.8063 Q1169.987,1560.8063 1170.166,1561.0016 Q1170.3613,1561.1806 1170.3613,1561.441 Q1170.3613,1561.7015 1170.1009,1561.9944 Q1169.7266,1562.4176 1169.1406,1562.6617 Q1168.3594,1562.9873 1167.4154,1562.9873 Q1166.2923,1562.9873 1165.4134,1562.5315 Q1164.681,1562.1735 1164.1764,1561.3759 Q1163.6719,1560.5784 1163.6719,1559.6507 L1163.6719,1558.8043 Q1163.6719,1557.8278 1164.1276,1556.9814 Q1164.5833,1556.1351 1165.3809,1555.6793 Q1166.1947,1555.2236 1167.0898,1555.2236 Q1167.6432,1555.2236 1168.1152,1555.3538 Q1168.5872,1555.4677 1168.9941,1555.7281 Z " fill="#2FA4E7"/><text fill="#343A40" font-family="Segoe UI" font-size="12.5" font-style="italic" lengthAdjust="spacing" textLength="68.75" x="1187.7604" y="1550.9888">&#171;valueType&#187;</text><text fill="#343A40" font-family="Segoe UI" font-size="11.4583" font-weight="bold" lengthAdjust="spacing" textLength="47.9167" x="1198.1771" y="1576.9073">Duration</text><line style="stroke:#F57C00;stroke-width:1.0416666666666667;" x1="1137.5" x2="1278.125" y1="1590.1998" y2="1590.1998"/><ellipse cx="1147.9167" cy="1608.7575" fill="none" rx="3.125" ry="3.125" style="stroke:#2683B9;stroke-width:1.0416666666666667;"/><text fill="#343A40" font-family="Segoe UI" font-size="11.4583" lengthAdjust="spacing" textLength="88.5417" x="1161.4583" y="1611.9395">seconds: Integer</text><line style="stroke:#F57C00;stroke-width:1.0416666666666667;" x1="1137.5" x2="1278.125" y1="1624.1903" y2="1624.1903"/><ellipse cx="1147.9167" cy="1642.748" fill="none" rx="3.125" ry="3.125" style="stroke:#2683B9;stroke-width:1.0416666666666667;"/><text fill="#343A40" font-family="Segoe UI" font-size="11.4583" lengthAdjust="spacing" textLength="106.25" x="1161.4583" y="1645.93">toMinutes(): Integer</text></g><!--class Range--><g id="elem_Range"><rect codeLine="176" fill="#FFF3E0" filter="url(#fijssko81jdlk)" height="156.7546" id="Range" rx="5.2083" ry="5.2083" style="stroke:#F57C00;stroke-width:1.0416666666666667;" width="200" x="1316.1458" y="1514.5833"/><ellipse cx="1374.4792" cy="1546.1416" fill="none" rx="10.4167" ry="10.4167" style="stroke:#2683B9;stroke-width:1.0416666666666667;"/><path d="M1376.0254,1543.2281 Q1376.1393,1543.0654 1376.2695,1542.984 Q1376.416,1542.9026 1376.5788,1542.9026 Q1376.8555,1542.9026 1377.0182,1543.0979 Q1377.1973,1543.2933 1377.1973,1543.7327 L1377.1973,1544.8069 Q1377.1973,1545.2464 1377.0182,1545.4417 Q1376.8555,1545.637 1376.5788,1545.637 Q1376.3184,1545.637 1376.1719,1545.4905 Q1376.0254,1545.3603 1375.944,1544.9697 Q1375.9115,1544.7093 1375.7813,1544.5791 Q1375.5208,1544.3024 1375.0651,1544.1396 Q1374.6257,1543.9768 1374.1699,1543.9768 Q1373.6165,1543.9768 1373.1445,1544.221 Q1372.6725,1544.4651 1372.3145,1545.0185 Q1371.9564,1545.5556 1371.9564,1546.3206 L1371.9564,1547.1344 Q1371.9564,1548.0296 1372.6074,1548.6318 Q1373.2747,1549.234 1374.4303,1549.234 Q1375.1302,1549.234 1375.6185,1549.055 Q1375.8952,1548.941 1376.2044,1548.6155 Q1376.3997,1548.4202 1376.5137,1548.3714 Q1376.6276,1548.3063 1376.7578,1548.3063 Q1377.0182,1548.3063 1377.1973,1548.5016 Q1377.3926,1548.6806 1377.3926,1548.941 Q1377.3926,1549.2015 1377.1322,1549.4944 Q1376.7578,1549.9176 1376.1719,1550.1617 Q1375.3906,1550.4873 1374.4466,1550.4873 Q1373.3236,1550.4873 1372.4447,1550.0315 Q1371.7122,1549.6735 1371.2077,1548.8759 Q1370.7031,1548.0784 1370.7031,1547.1507 L1370.7031,1546.3043 Q1370.7031,1545.3278 1371.1589,1544.4814 Q1371.6146,1543.6351 1372.4121,1543.1793 Q1373.2259,1542.7236 1374.1211,1542.7236 Q1374.6745,1542.7236 1375.1465,1542.8538 Q1375.6185,1542.9677 1376.0254,1543.2281 Z " fill="#2FA4E7"/><text fill="#343A40" font-family="Segoe UI" font-size="12.5" font-style="italic" lengthAdjust="spacing" textLength="68.75" x="1397.3958" y="1538.4888">&#171;valueType&#187;</text><text fill="#343A40" font-family="Segoe UI" font-size="11.4583" font-weight="bold" lengthAdjust="spacing" textLength="34.375" x="1414.5833" y="1564.4073">Range</text><line style="stroke:#F57C00;stroke-width:1.0416666666666667;" x1="1317.1875" x2="1515.1042" y1="1577.6998" y2="1577.6998"/><ellipse cx="1327.6042" cy="1596.2575" fill="none" rx="3.125" ry="3.125" style="stroke:#2683B9;stroke-width:1.0416666666666667;"/><text fill="#343A40" font-family="Segoe UI" font-size="11.4583" lengthAdjust="spacing" textLength="53.125" x="1341.1458" y="1599.4395">min: Float</text><ellipse cx="1327.6042" cy="1621.9147" fill="none" rx="3.125" ry="3.125" style="stroke:#2683B9;stroke-width:1.0416666666666667;"/><text fill="#343A40" font-family="Segoe UI" font-size="11.4583" lengthAdjust="spacing" textLength="54.1667" x="1341.1458" y="1625.0966">max: Float</text><line style="stroke:#F57C00;stroke-width:1.0416666666666667;" x1="1317.1875" x2="1515.1042" y1="1637.3474" y2="1637.3474"/><ellipse cx="1327.6042" cy="1655.9052" fill="none" rx="3.125" ry="3.125" style="stroke:#2683B9;stroke-width:1.0416666666666667;"/><text fill="#343A40" font-family="Segoe UI" font-size="11.4583" lengthAdjust="spacing" textLength="163.5417" x="1341.1458" y="1659.0871">contains(value: Float): Boolean</text></g><g id="elem_GMN62"><path d="M697.3958,21.875 L697.3958,69.7001 A5.2083,5.2083 0 0 0 702.6042,74.9084 L786.9792,74.9084 L791.1458,137.0833 L795.3125,74.9084 L879.6875,74.9084 A5.2083,5.2083 0 0 0 884.8958,69.7001 L884.8958,27.0833 L874.4792,16.6667 L702.6042,16.6667 A5.2083,5.2083 0 0 0 697.3958,21.875 " fill="#E8F5E8" filter="url(#fijssko81jdlk)" style="stroke:#4CAF50;stroke-width:1.0416666666666667;"/><path d="M874.4792,16.6667 L874.4792,24.4792 A2.6042,2.6042 0 0 0 877.0833,27.0833 L884.8958,27.0833 L874.4792,16.6667 " fill="#E8F5E8" style="stroke:#4CAF50;stroke-width:1.0416666666666667;"/><text fill="#1976D2" font-family="Segoe UI" font-size="9.375" font-weight="bold" lengthAdjust="spacing" textLength="97.9167" x="708.8542" y="37.1999">&#127959;&#65039; System Architecture</text><text fill="#033C73" font-family="Segoe UI" font-size="9.375" lengthAdjust="spacing" textLength="155.2083" x="708.8542" y="49.6694">Complete intersection control solution</text><text fill="#033C73" font-family="Segoe UI" font-size="9.375" lengthAdjust="spacing" textLength="126.0417" x="708.8542" y="62.1389">with integrated safety features</text></g><g id="elem_GMN65"><path d="M1124.4792,526.0417 L1124.4792,573.8668 A5.2083,5.2083 0 0 0 1129.6875,579.0751 L1277.6042,579.0751 A5.2083,5.2083 0 0 0 1282.8125,573.8668 L1282.8125,531.25 L1272.3958,520.8333 L1129.6875,520.8333 A5.2083,5.2083 0 0 0 1124.4792,526.0417 " fill="#E8F5E8" filter="url(#fijssko81jdlk)" style="stroke:#4CAF50;stroke-width:1.0416666666666667;"/><path d="M1272.3958,520.8333 L1272.3958,528.6458 A2.6042,2.6042 0 0 0 1275,531.25 L1282.8125,531.25 L1272.3958,520.8333 " fill="#E8F5E8" style="stroke:#4CAF50;stroke-width:1.0416666666666667;"/><text fill="#1976D2" font-family="Segoe UI" font-size="9.375" font-weight="bold" lengthAdjust="spacing" textLength="101.0417" x="1135.9375" y="541.3666">&#129504; Central Control Unit</text><text fill="#033C73" font-family="Segoe UI" font-size="9.375" lengthAdjust="spacing" textLength="126.0417" x="1135.9375" y="553.8361">Intelligent decision making and</text><text fill="#033C73" font-family="Segoe UI" font-size="9.375" lengthAdjust="spacing" textLength="117.7083" x="1135.9375" y="566.3055">real-time traffic coordination</text></g><g id="elem_GMN68"><path d="M758.3333,821.875 L758.3333,841.6667 L647.5521,845.8333 L758.3333,850 L758.3333,869.7001 A5.2083,5.2083 0 0 0 763.5417,874.9084 L906.25,874.9084 A5.2083,5.2083 0 0 0 911.4583,869.7001 L911.4583,827.0833 L901.0417,816.6667 L763.5417,816.6667 A5.2083,5.2083 0 0 0 758.3333,821.875 " fill="#E8F5E8" filter="url(#fijssko81jdlk)" style="stroke:#4CAF50;stroke-width:1.0416666666666667;"/><path d="M901.0417,816.6667 L901.0417,824.4792 A2.6042,2.6042 0 0 0 903.6458,827.0833 L911.4583,827.0833 L901.0417,816.6667 " fill="#E8F5E8" style="stroke:#4CAF50;stroke-width:1.0416666666666667;"/><text fill="#1976D2" font-family="Segoe UI" font-size="9.375" font-weight="bold" lengthAdjust="spacing" textLength="77.0833" x="769.7917" y="837.1999">&#128161; Visual Interface</text><text fill="#033C73" font-family="Segoe UI" font-size="9.375" lengthAdjust="spacing" textLength="102.0833" x="769.7917" y="849.6694">High-visibility LED signals</text><text fill="#033C73" font-family="Segoe UI" font-size="9.375" lengthAdjust="spacing" textLength="120.8333" x="769.7917" y="862.1389">with self-diagnostic capability</text></g><g id="elem_GMN71"><path d="M583.8542,1105.2083 L583.8542,1153.0334 A5.2083,5.2083 0 0 0 589.0625,1158.2418 L739.0625,1158.2418 A5.2083,5.2083 0 0 0 744.2708,1153.0334 L744.2708,1110.4167 L733.8542,1100 L589.0625,1100 A5.2083,5.2083 0 0 0 583.8542,1105.2083 " fill="#E8F5E8" filter="url(#fijssko81jdlk)" style="stroke:#4CAF50;stroke-width:1.0416666666666667;"/><path d="M733.8542,1100 L733.8542,1107.8125 A2.6042,2.6042 0 0 0 736.4583,1110.4167 L744.2708,1110.4167 L733.8542,1100 " fill="#E8F5E8" style="stroke:#4CAF50;stroke-width:1.0416666666666667;"/><text fill="#1976D2" font-family="Segoe UI" font-size="9.375" font-weight="bold" lengthAdjust="spacing" textLength="107.2917" x="595.3125" y="1120.5332">&#128225; Detection Technology</text><text fill="#033C73" font-family="Segoe UI" font-size="9.375" lengthAdjust="spacing" textLength="123.9583" x="595.3125" y="1133.0027">Precision vehicle sensing using</text><text fill="#033C73" font-family="Segoe UI" font-size="9.375" lengthAdjust="spacing" textLength="128.125" x="595.3125" y="1145.4722">electromagnetic field variations</text></g><g id="elem_GMN74"><path d="M70.8333,821.875 L70.8333,869.7001 A5.2083,5.2083 0 0 0 76.0417,874.9084 L225,874.9084 A5.2083,5.2083 0 0 0 230.2083,869.7001 L230.2083,827.0833 L219.7917,816.6667 L76.0417,816.6667 A5.2083,5.2083 0 0 0 70.8333,821.875 " fill="#E8F5E8" filter="url(#fijssko81jdlk)" style="stroke:#4CAF50;stroke-width:1.0416666666666667;"/><path d="M219.7917,816.6667 L219.7917,824.4792 A2.6042,2.6042 0 0 0 222.3958,827.0833 L230.2083,827.0833 L219.7917,816.6667 " fill="#E8F5E8" style="stroke:#4CAF50;stroke-width:1.0416666666666667;"/><text fill="#7B1FA2" font-family="Segoe UI" font-size="9.375" font-weight="bold" lengthAdjust="spacing" textLength="94.7917" x="82.2917" y="837.1999">&#128295; Foundation Classes</text><text fill="#033C73" font-family="Segoe UI" font-size="9.375" lengthAdjust="spacing" textLength="127.0833" x="82.2917" y="849.6694">Common sensor behaviors and</text><text fill="#033C73" font-family="Segoe UI" font-size="9.375" lengthAdjust="spacing" textLength="95.8333" x="82.2917" y="862.1389">standardized interfaces</text></g><g id="elem_GMN77"><path d="M16.6667,1105.2083 L16.6667,1153.0334 A5.2083,5.2083 0 0 0 21.875,1158.2418 L195.8333,1158.2418 A5.2083,5.2083 0 0 0 201.0417,1153.0334 L201.0417,1110.4167 L190.625,1100 L21.875,1100 A5.2083,5.2083 0 0 0 16.6667,1105.2083 " fill="#E8F5E8" filter="url(#fijssko81jdlk)" style="stroke:#4CAF50;stroke-width:1.0416666666666667;"/><path d="M190.625,1100 L190.625,1107.8125 A2.6042,2.6042 0 0 0 193.2292,1110.4167 L201.0417,1110.4167 L190.625,1100 " fill="#E8F5E8" style="stroke:#4CAF50;stroke-width:1.0416666666666667;"/><text fill="#F57C00" font-family="Segoe UI" font-size="9.375" font-weight="bold" lengthAdjust="spacing" textLength="92.7083" x="28.125" y="1120.5332">&#128203; System Data Types</text><text fill="#033C73" font-family="Segoe UI" font-size="9.375" lengthAdjust="spacing" textLength="152.0833" x="28.125" y="1133.0027">Core enumerations and value objects</text><text fill="#033C73" font-family="Segoe UI" font-size="9.375" lengthAdjust="spacing" textLength="120.8333" x="28.125" y="1145.4722">supporting system operations</text></g><!--reverse link TrafficSignalSystem to TrafficSignalController--><g id="link_TrafficSignalSystem_TrafficSignalController"><path codeLine="184" d="M819.2708,383.5833 C819.2708,403.9375 819.2708,412.6042 819.2708,432.9583 " fill="none" id="TrafficSignalSystem-backto-TrafficSignalController" style="stroke:#424242;stroke-width:3.125;"/><polygon fill="#424242" points="819.2708,371.0833,815.1042,377.3333,819.2708,383.5833,823.4375,377.3333,819.2708,371.0833" style="stroke:#424242;stroke-width:3.125;"/><text fill="#424242" font-family="Segoe UI" font-size="10.4167" lengthAdjust="spacing" textLength="48.9583" x="764.0625" y="393.4698">&#171;contains&#187;</text><text fill="#424242" font-family="Segoe UI" font-size="10.4167" lengthAdjust="spacing" textLength="5.2083" x="810.1554" y="417.181">1</text></g><!--link TrafficSignalSystem to TrafficSignalController--><!--reverse link TrafficSignalController to Light--><g id="link_TrafficSignalController_Light"><path codeLine="186" d="M731.5938,679.5104 C731.5938,739.4583 731.5938,787.5 731.5938,787.5 C731.5938,787.5 690.9479,787.5 647.5208,787.5 " fill="none" id="TrafficSignalController-backto-Light" style="stroke:#424242;stroke-width:3.125;"/><polygon fill="#424242" points="731.5938,667.0104,727.4271,673.2604,731.5938,679.5104,735.7604,673.2604,731.5938,667.0104" style="stroke:#424242;stroke-width:3.125;"/><text fill="#424242" font-family="Segoe UI" font-size="10.4167" lengthAdjust="spacing" textLength="46.875" x="678.4688" y="760.7406">&#171;controls&#187;</text><text fill="#424242" font-family="Segoe UI" font-size="10.4167" lengthAdjust="spacing" textLength="5.2083" x="660.8853" y="774.8242">4</text></g><!--link TrafficSignalController to Light--><!--reverse link TrafficSignalController to VehicleDetector--><g id="link_TrafficSignalController_VehicleDetector"><path codeLine="187" d="M888.75,662.5 C961.3229,662.5 1041.4896,662.5 1041.4896,662.5 C1041.4896,662.5 1041.4896,692.7604 1041.4896,728.6875 " fill="none" id="TrafficSignalController-backto-VehicleDetector" style="stroke:#424242;stroke-width:3.125;"/><polygon fill="#424242" points="876.25,662.5,882.5,666.6667,888.75,662.5,882.5,658.3333,876.25,662.5" style="stroke:#424242;stroke-width:3.125;"/><text fill="#424242" font-family="Segoe UI" font-size="10.4167" lengthAdjust="spacing" textLength="52.0833" x="933.6354" y="679.9906">&#171;manages&#187;</text><text fill="#424242" font-family="Segoe UI" font-size="10.4167" lengthAdjust="spacing" textLength="5.2083" x="1030.7946" y="712.9035">4</text></g><!--reverse link TrafficSignalController to SupportingInstrument--><g id="link_TrafficSignalController_SupportingInstrument"><path codeLine="188" d="M888.6042,652.0833 C1025.6667,652.0833 1267.8854,652.0833 1267.8854,652.0833 C1267.8854,652.0833 1267.8854,688.0208 1267.8854,728.9375 " fill="none" id="TrafficSignalController-backto-SupportingInstrument" style="stroke:#424242;stroke-width:3.125;"/><polygon fill="#424242" points="876.1042,652.0833,882.3542,656.25,888.6042,652.0833,882.3542,647.9167,876.1042,652.0833" style="stroke:#424242;stroke-width:3.125;"/><text fill="#424242" font-family="Segoe UI" font-size="10.4167" lengthAdjust="spacing" textLength="51.0417" x="1053.125" y="669.574">&#171;monitors&#187;</text><text fill="#424242" font-family="Segoe UI" font-size="10.4167" lengthAdjust="spacing" textLength="5.2083" x="1252.3417" y="713.1695">2</text></g><!--reverse link VehicleDetector to InductiveLoopDetector--><g id="link_VehicleDetector_InductiveLoopDetector"><path codeLine="190" d="M935.8125,940.625 C919.9167,940.625 920.8333,940.625 920.8333,940.625 C920.8333,940.625 920.8333,1030.2083 920.8333,1030.2083 C920.8333,1030.2083 569.4271,1030.2083 404.7083,1030.2083 " fill="none" id="VehicleDetector-backto-InductiveLoopDetector" style="stroke:#424242;stroke-width:3.125;"/><polygon fill="#424242" points="948.3125,940.625,942.0625,936.4583,935.8125,940.625,942.0625,944.7917,948.3125,940.625" style="stroke:#424242;stroke-width:3.125;"/><text fill="#424242" font-family="Segoe UI" font-size="10.4167" lengthAdjust="spacing" textLength="30.2083" x="684.8438" y="1021.6573">&#171;uses&#187;</text><text fill="#424242" font-family="Segoe UI" font-size="10.4167" lengthAdjust="spacing" textLength="5.2083" x="418.3211" y="1012.4986">1</text></g><!--link InductiveLoopDetector to AnalogToDigitalConverter--><g id="link_InductiveLoopDetector_AnalogToDigitalConverter"><path codeLine="191" d="M404.8958,1034.375 C534.4063,1034.375 777.0208,1034.375 917.0625,1034.375 " fill="none" id="InductiveLoopDetector-to-AnalogToDigitalConverter" style="stroke:#424242;stroke-width:3.125;"/><polygon fill="#424242" points="923.3125,1034.375,913.9375,1030.2083,918.1042,1034.375,913.9375,1038.5417,923.3125,1034.375" style="stroke:#424242;stroke-width:3.125;"/><text fill="#424242" font-family="Segoe UI" font-size="10.4167" lengthAdjust="spacing" textLength="34.375" x="623.4792" y="1025.824">&#171;feeds&#187;</text><text fill="#424242" font-family="Segoe UI" font-size="10.4167" lengthAdjust="spacing" textLength="5.2083" x="904.8162" y="1019.0459">1</text></g><!--link InductiveLoopDetector to AnalogToDigitalConverter--><!--link AnalogToDigitalConverter to SerialCommunicationBus--><g id="link_AnalogToDigitalConverter_SerialCommunicationBus"><path codeLine="192" d="M1127.8542,1077.0833 C1216.1563,1077.0833 1336.1354,1077.0833 1420.1979,1077.0833 " fill="none" id="AnalogToDigitalConverter-to-SerialCommunicationBus" style="stroke:#424242;stroke-width:3.125;"/><polygon fill="#424242" points="1426.4479,1077.0833,1417.0729,1072.9167,1421.2396,1077.0833,1417.0729,1081.25,1426.4479,1077.0833" style="stroke:#424242;stroke-width:3.125;"/><text fill="#424242" font-family="Segoe UI" font-size="10.4167" lengthAdjust="spacing" textLength="45.8333" x="1225.0729" y="1068.5323">&#171;outputs&#187;</text><text fill="#424242" font-family="Segoe UI" font-size="10.4167" lengthAdjust="spacing" textLength="5.2083" x="1407.741" y="1064.0934">1</text></g><!--link AnalogToDigitalConverter to SerialCommunicationBus--><!--reverse link Sensor to VehicleDetector--><g id="link_Sensor_VehicleDetector"><path codeLine="195" d="M407.4167,673.25 C407.4167,705.3021 407.4167,713.5417 407.4167,713.5417 C407.4167,713.5417 994.9688,713.5417 994.9688,713.5417 C994.9688,713.5417 994.9688,719.4271 994.9688,728.7188 " fill="none" id="Sensor-backto-VehicleDetector" style="stroke:#424242;stroke-width:3.125;"/><polygon fill="none" points="407.4167,654.5,401.1667,673.25,413.6667,673.25,407.4167,654.5" style="stroke:#424242;stroke-width:3.125;"/><text fill="#424242" font-family="Segoe UI" font-size="10.4167" lengthAdjust="spacing" textLength="57.2917" x="615.7188" y="704.9906">&#171;specializes&#187;</text></g><!--reverse link Sensor to InductiveLoopDetector--><g id="link_Sensor_InductiveLoopDetector"><path codeLine="196" d="M264.4583,672.9583 C264.4583,777.8333 264.4583,919.8958 264.4583,1024.8125 " fill="none" id="Sensor-backto-InductiveLoopDetector" style="stroke:#424242;stroke-width:3.125;"/><polygon fill="none" points="264.4583,654.2083,258.2083,672.9583,270.7083,672.9583,264.4583,654.2083" style="stroke:#424242;stroke-width:3.125;"/><text fill="#424242" font-family="Segoe UI" font-size="10.4167" lengthAdjust="spacing" textLength="57.2917" x="200.9167" y="830.9594">&#171;specializes&#187;</text></g><!--link InductiveLoopDetector to Sensor--><!--reverse link Sensor to SupportingInstrument--><g id="link_Sensor_SupportingInstrument"><path codeLine="197" d="M410.1563,673.0833 C410.1563,697.5625 410.1563,697.9167 410.1563,697.9167 C410.1563,697.9167 1252.9479,697.9167 1252.9479,697.9167 C1252.9479,697.9167 1252.9479,710.7813 1252.9479,728.9271 " fill="none" id="Sensor-backto-SupportingInstrument" style="stroke:#424242;stroke-width:3.125;"/><polygon fill="none" points="410.1563,654.3333,403.9063,673.0833,416.4063,673.0833,410.1563,654.3333" style="stroke:#424242;stroke-width:3.125;"/><text fill="#424242" font-family="Segoe UI" font-size="10.4167" lengthAdjust="spacing" textLength="57.2917" x="761.7292" y="689.3656">&#171;specializes&#187;</text></g><!--reverse link CommunicationInterface to SerialCommunicationBus--><g id="link_CommunicationInterface_SerialCommunicationBus"><path codeLine="198" d="M1107,620.8333 C1249.3125,620.8333 1496.0104,620.8333 1496.0104,620.8333 C1496.0104,620.8333 1496.0104,876 1496.0104,1024.7604 " fill="none" id="CommunicationInterface-backto-SerialCommunicationBus" style="stroke:#424242;stroke-width:3.125;"/><polygon fill="none" points="1088.25,620.8333,1107,627.0833,1107,614.5833,1088.25,620.8333" style="stroke:#424242;stroke-width:3.125;"/><text fill="#424242" font-family="Segoe UI" font-size="10.4167" lengthAdjust="spacing" textLength="63.5417" x="1424.3021" y="612.2823">&#171;implements&#187;</text></g><!--link SerialCommunicationBus to CommunicationInterface--><!--link TrafficSignalController to OperationalMode--><g id="link_TrafficSignalController_OperationalMode"><path codeLine="201" d="M705.7396,660.4167 C579.7604,660.4167 358.8542,660.4167 358.8542,660.4167 C358.8542,660.4167 358.8542,701.4271 358.8542,748.2292 " fill="none" id="TrafficSignalController-to-OperationalMode" style="stroke:#424242;stroke-width:3.125;stroke-dasharray:7.0,7.0;"/><polygon fill="#424242" points="358.8542,754.4792,363.0208,745.1042,358.8542,749.2708,354.6875,745.1042,358.8542,754.4792" style="stroke:#424242;stroke-width:3.125;"/><text fill="#424242" font-family="Segoe UI" font-size="10.4167" lengthAdjust="spacing" textLength="30.2083" x="448.8021" y="651.8656">&#171;uses&#187;</text></g><!--link Light to LightColor--><g id="link_Light_LightColor"><path codeLine="202" d="M504.8958,962.7083 C504.8958,987.7083 504.8958,1007.5208 504.8958,1031.4063 " fill="none" id="Light-to-LightColor" style="stroke:#424242;stroke-width:3.125;stroke-dasharray:7.0,7.0;"/><polygon fill="#424242" points="504.8958,1037.6563,509.0625,1028.2813,504.8958,1032.4479,500.7292,1028.2813,504.8958,1037.6563" style="stroke:#424242;stroke-width:3.125;"/><text fill="#424242" font-family="Segoe UI" font-size="10.4167" lengthAdjust="spacing" textLength="30.2083" x="468.4375" y="991.6365">&#171;uses&#187;</text></g><!--link Light to Direction--><g id="link_Light_Direction"><path codeLine="203" d="M626.2188,962.6042 C626.2188,1012.4583 626.2188,1059.375 626.2188,1059.375 C626.2188,1059.375 712.8854,1059.375 774.4063,1059.375 " fill="none" id="Light-to-Direction" style="stroke:#424242;stroke-width:3.125;stroke-dasharray:7.0,7.0;"/><polygon fill="#424242" points="780.6563,1059.375,771.2813,1055.2083,775.4479,1059.375,771.2813,1063.5417,780.6563,1059.375" style="stroke:#424242;stroke-width:3.125;"/><text fill="#424242" font-family="Segoe UI" font-size="10.4167" lengthAdjust="spacing" textLength="30.2083" x="618.5833" y="1076.8656">&#171;uses&#187;</text></g><!--link VehicleDetector to Direction--><g id="link_VehicleDetector_Direction"><path codeLine="204" d="M948.1771,918.75 C893.3958,918.75 833.8542,918.75 833.8542,918.75 C833.8542,918.75 833.8542,974.7604 833.8542,1031.5417 " fill="none" id="VehicleDetector-to-Direction" style="stroke:#424242;stroke-width:3.125;stroke-dasharray:7.0,7.0;"/><polygon fill="#424242" points="833.8542,1037.7917,838.0208,1028.4167,833.8542,1032.5833,829.6875,1028.4167,833.8542,1037.7917" style="stroke:#424242;stroke-width:3.125;"/><text fill="#424242" font-family="Segoe UI" font-size="10.4167" lengthAdjust="spacing" textLength="30.2083" x="797.3958" y="912.5636">&#171;uses&#187;</text></g><!--link SerialCommunicationBus to Protocol--><g id="link_SerialCommunicationBus_Protocol"><path codeLine="205" d="M1426.4688,1181.25 C1318.6563,1181.25 1150.8646,1181.25 1150.8646,1181.25 C1150.8646,1181.25 1150.8646,1235.9792 1150.8646,1289.3229 " fill="none" id="SerialCommunicationBus-to-Protocol" style="stroke:#424242;stroke-width:3.125;stroke-dasharray:7.0,7.0;"/><polygon fill="#424242" points="1150.8646,1295.5729,1155.0313,1286.1979,1150.8646,1290.3646,1146.6979,1286.1979,1150.8646,1295.5729" style="stroke:#424242;stroke-width:3.125;"/><text fill="#424242" font-family="Segoe UI" font-size="10.4167" lengthAdjust="spacing" textLength="30.2083" x="1195.0417" y="1172.699">&#171;uses&#187;</text></g><!--link SupportingInstrument to InstrumentType--><g id="link_SupportingInstrument_InstrumentType"><path codeLine="206" d="M1299.4792,962.7188 C1299.4792,1064.0417 1299.4792,1201.5938 1299.4792,1289.5521 " fill="none" id="SupportingInstrument-to-InstrumentType" style="stroke:#424242;stroke-width:3.125;stroke-dasharray:7.0,7.0;"/><polygon fill="#424242" points="1299.4792,1295.8021,1303.6458,1286.4271,1299.4792,1290.5938,1295.3125,1286.4271,1299.4792,1295.8021" style="stroke:#424242;stroke-width:3.125;"/><text fill="#424242" font-family="Segoe UI" font-size="10.4167" lengthAdjust="spacing" textLength="30.2083" x="1263.0208" y="1120.7094">&#171;uses&#187;</text></g><!--link SupportingInstrument to Range--><g id="link_SupportingInstrument_Range"><path codeLine="207" d="M1393.75,962.5313 C1393.75,1116.3854 1393.75,1376.6667 1393.75,1508.2917 " fill="none" id="SupportingInstrument-to-Range" style="stroke:#424242;stroke-width:3.125;stroke-dasharray:7.0,7.0;"/><polygon fill="#424242" points="1393.75,1514.5417,1397.9167,1505.1667,1393.75,1509.3333,1389.5833,1505.1667,1393.75,1514.5417" style="stroke:#424242;stroke-width:3.125;"/><text fill="#424242" font-family="Segoe UI" font-size="10.4167" lengthAdjust="spacing" textLength="30.2083" x="1357.2917" y="1229.9906">&#171;uses&#187;</text></g><!--link TrafficSignalController to Duration--><g id="link_TrafficSignalController_Duration"><path codeLine="208" d="M876.5313,657.2917 C1000.4896,657.2917 1215.625,657.2917 1215.625,657.2917 C1215.625,657.2917 1215.625,1307.7604 1215.625,1520.6771 " fill="none" id="TrafficSignalController-to-Duration" style="stroke:#424242;stroke-width:3.125;stroke-dasharray:7.0,7.0;"/><polygon fill="#424242" points="1215.625,1526.9271,1219.7917,1517.5521,1215.625,1521.7188,1211.4583,1517.5521,1215.625,1526.9271" style="stroke:#424242;stroke-width:3.125;"/><text fill="#424242" font-family="Segoe UI" font-size="10.4167" lengthAdjust="spacing" textLength="30.2083" x="1179.1667" y="914.0115">&#171;uses&#187;</text></g><!--link Light to VehicleDetector--><!--link VehicleDetector to SupportingInstrument--><!--link Light to InductiveLoopDetector--><!--link VehicleDetector to AnalogToDigitalConverter--><!--link SupportingInstrument to SerialCommunicationBus--><!--link Sensor to CommunicationInterface--><!--link Sensor to OperationalMode--><!--link CommunicationInterface to LightColor--><!--link OperationalMode to LightColor--><!--link LightColor to Direction--><!--link Direction to Protocol--><!--link Protocol to InstrumentType--><!--link InstrumentType to Duration--><!--link Duration to Range--><!--link TrafficSignalController to GMN65--><g id="link_TrafficSignalController_GMN65"><path d="M876.1458,646.875 C988.9688,646.875 1174.1354,646.875 1174.1354,646.875 C1174.1354,646.875 1174.1354,607.8438 1174.1354,579.3333 " fill="none" id="TrafficSignalController-GMN65" style="stroke:#424242;stroke-width:3.125;stroke-dasharray:7.0,7.0;"/></g><!--link InductiveLoopDetector to GMN71--><g id="link_InductiveLoopDetector_GMN71"><path d="M404.9375,1036.4583 C488.6146,1036.4583 605.0313,1036.4583 605.0313,1036.4583 C605.0313,1036.4583 605.0313,1072.6771 605.0313,1099.8333 " fill="none" id="InductiveLoopDetector-GMN71" style="stroke:#424242;stroke-width:3.125;stroke-dasharray:7.0,7.0;"/></g><!--link Sensor to GMN74--><g id="link_Sensor_GMN74"><path d="M258.9792,654.3021 C258.9792,739.4688 258.9792,845.8333 258.9792,845.8333 C258.9792,845.8333 246.7396,845.8333 230.4896,845.8333 " fill="none" id="Sensor-GMN74" style="stroke:#424242;stroke-width:3.125;stroke-dasharray:7.0,7.0;"/></g><!--link OperationalMode to GMN77--><g id="link_OperationalMode_GMN77"><path d="M267.1042,906.25 C209.2604,906.25 135.9375,906.25 135.9375,906.25 C135.9375,906.25 135.9375,1038.9271 135.9375,1099.5625 " fill="none" id="OperationalMode-GMN77" style="stroke:#424242;stroke-width:3.125;stroke-dasharray:7.0,7.0;"/></g><!--SRC=[rLbFRnkv5R_hKx3UmpejjEi_yIOn306oD7Q4oh8WoTwcYprGCno9zGofaXoxskq2lRGzzB15cw903qtJonxQOm_zFFa2tO_GHt9cD1gHihD8McmYM9hXu-Fx-tkFv8VepSjVVRy-ZG_HU2al-kYqVzdvCUe6Pxr1RzAx7A1khtq-Qb-W9fe87CSqH6CwOpZHz8gaCF6Ku4pHE4lGS2bmIYCOx189LEYEgZaAs1opa4IeJQIQ4qL32RE-VoRw0GYV4XGIaIK4ioRFL48PQSWRoXOOD4VwKIqN176Xvhmo87Z6ef0BHWJQtwiCj8NWTvCv3MyOaH8TLeR214jvnfaQqoy8sjzt3gbbGj2K9r5bLCvnnEyeco4bigfuKnpUp8me7PvmWJw8dyRFOboXY4YCiqHfrWCCkkwCoOmJTDNRQPGkGtRoE3JM-F-xfMOMz6K3eTDrJKzEfWaFRrejz04vZ0_YI9Dm4H5H7zv_zkIJwC35uHOd6Pc0SpLP7CU7PA_EPPtaw4cuj-VYXATI2HmgGtL8ZkAZEgCgnPFfVemF6byrAefY7JL6qToHZm_qVtZMddEzip6qjyw6SKLSvW8hFOsFoDDriO1ZYEEZlIh7PveX1CQVVlzM7zGFheC-sWTGQG-3dxpr_7i_3HiAEM9PmB9uXLRErff_6LEIH5-X7o5fXdlHCHehePDdRHIcO4KvAqRN1bCUaMDqkI32qE3a0bu0HHF-QSAK01eOIigeeZW1q-q-EaQtd4RhutAUASXTvXw5V1CpmiAbvb-IlAK7SjiVWEqxbuF9wBAFthFXEn0jWYS9O9_F-659idB0Ei4oJCY4fc3dRcRDl3Q-c6D9nkJd6PW7Q8RwyRFFdJx85X5Mn8ectOPU21u277U98g5UoaC6PIrAo9b6pE_aZTmLX-2ARd3TwmHZz5xIe4zdS-MrVQ97FMQFgB0M0BCNFzVzaWb1SiWvjWkPtsj4Kw7Vwm9tZ7fCaHaHJiz8OYVlXdLsRYyH4NEHZaaIJw2pq2xGtoCYmI7Q4LRxQmBbDI7McTmVWr5Ey5rD8GcJaDstL2sFqLd2iLeRfh8DSsuXE4yvr_s36o1aBkvG461eb5hHLmX3G94f9C8Q3bY5nzbY0Gq8AD1ZK4Uo5FXujQObYKTltSzejnLakhwjen_1CXD4Zuqmcm6n-LgZmI442WuhXjbKNU4RSh7YfVKghLZHUqx2cx72AZD9kPBBldju_kN9znYIxtbxrFsqFGhUJ_RrM9GPp_SvNzmRXGaGUJnX0epDpeI5ENUKcSMm0K6_gMsevv7c3R4PKMt0I3wpMBboI1bfTdZ2ktH6bG7wMoBK5fp7KUXH3iAT9vbEgbEgrd2YOW2SBg35deqWxBUf5revTgMHEwTyjCQp2Ze9sA83MCv8iXlEIxBDl2A2QYNJD6FKjWEdcVJgEisaHzSfpYAhWqjBA3wA0m925Sj_kTD5O2PJgdQXcc7mu591mNFY980LWV0pVZPK3qoIF4EET9TsEfwCsXsz8Nn7DQfHzBYeC2wJMz92cc5VSv1Z8JYaQyog_zR0jzATRKVWJM2jXukdsjGKMeiJxMSHuv1imU6SmgFZAYhAGLS1PL4U3sssVAHf3IZwmW687X8BUI1y0e5mtUvV1MZoOlXkUvK6OLbQxw3H-evAs-lRLw_-ZWPGz75YdrwZ2wnDnpJa8VFkvRzGK3JAyEBDN_w1J8kcDJNBhDeAvmemVqIYWlqBaYJyhbZwN132SgQNSLooB3i21ySt__pDV_xzjPPQpStZR_NZc6VsyQ-lzME0fJA3lzPFdq9WbRmB572m7eqVFzMRnqvx07y3DIU2aTNCzQBjc3_aTqHSSDYKc8vjGbBZ0QZ0DXtXtVCifH6qDFcB4WoBBjp1jPgr0CNHFLsVuXUKPOhazTmIbkkONcBh8YbbhagOub_SKoCKH8xSDOnNDQA01dzQmBRfOdWvjgTZew3VDgZul3TyTndHS6rSVzZKEyCcsjdVyUwlZi5IXMQjLgFXeojvFTx9TmV5J23GCnyoiTvOQnOfPdX67iJXOCVTgHesDYQD3lLbgdPmzrQQGoQD56u2ow5bM7Xx6Cqb9YJIRBn4LKwU_a3pWMHVPCgeuuegT1uCWb6xt_jf-xr4rOODczcY-SjMKNIrX791GdioiSLizynoklFUIMwhvTCyLLIpeT0Ccfs2rwovSRl1C1XqWq7dnVyaNIkn_f6EZezQ6uMj4g0s-mh2IcdoqgngJOMaxk2jn1wJ5tFAWbETud9jCQ5MPnuwpK9xXVe-CvOrfp9dc-E3Vd3U7anGWTQzmVcxFshSWjZDp-OqYWZxF0S9Ztv-cAupi860ye0eHytn2WpNWc0pw-iJNEvfrBddQpiXmRz4FiiBdCY35hNvxb3ruLDTFz_gM_1ymqHk0UwJe1JVT4q-ZAjHky6kaKFdXcWUyWtwd7lzVDe3hSwOiv246dKWsv2fSW9OcRX1jZf1Mm5KVU5ozrlYqGQRsgbK3OVg3Ck3un97DXZQawktlT50fq7xQj8xk-gZmUNatP_YcdiQnHU8nwuh3MXiJwQj4tjecjzWjRvzzVMVpJx3Gb5RX7EgWnHw-vEF3MdhvEDformXwK8AAvWjgCozaVU2g3YL0K9pcQk9Pdfx7269OwAMA2Pcno1Xpn6PAwM65TZOT4Fa2kovnVxcRwW37XGuGJajke9ci2QqZjSaeJED6H6q4rBBdE8RVN63cTwz2OAJfg8fqISbvjuwv5n4bDaOy0bhejOZsXzUesigCv2iJ9UQMCzXTlCMf9dI13PDi77k8diA9Gi3wWE4PaJnZ76fj5HuWIsrLoOtzBfb_EDhL5vRm8Okd3CWc2rhSWv5ORDR2-35uIBAf3rSCATYWgSWfxwnHsPVXMun09cv4QaBE-LAyLHBMsuTA-BPIqmGx-Ktw4pVCzhyw-Wj7f6R0GdzVtxaWwPaZcyfx0Lolqe5tnWS-GM4O7bgiaMUpNkvYc3sbbRRxNT5gdInmaW3oAPSWY2ziSxv6OcGsJyYFlqPs4ixMPPbBRzIHBmGe2BaVm40]--></g></svg>